<?xml version="1.0" encoding="UTF-8"?>
<svg version="1.1" xmlns="http://www.w3.org/2000/svg" width="512" height="512">
<path d="M0 0 C168.96 0 337.92 0 512 0 C512 168.96 512 337.92 512 512 C343.04 512 174.08 512 0 512 C0 343.04 0 174.08 0 0 Z " fill="#F2F3F5" transform="translate(0,0)"/>
<path d="M0 0 C168.96 0 337.92 0 512 0 C512 168.96 512 337.92 512 512 C343.04 512 174.08 512 0 512 C0 343.04 0 174.08 0 0 Z M200 18 C199.23300781 18.17370117 198.46601563 18.34740234 197.67578125 18.52636719 C152.73934932 28.84496212 115.19222807 52.81793641 82 84 C81.34386719 84.61359375 80.68773438 85.2271875 80.01171875 85.859375 C74.85960698 90.83382775 70.44649553 96.39800069 66 102 C65.21625 102.96679688 64.4325 103.93359375 63.625 104.9296875 C46.18744387 126.89430147 33.44806826 151.67849512 24 178 C23.37158203 179.74796875 23.37158203 179.74796875 22.73046875 181.53125 C3.07192708 241.05512121 9.44169858 308.13127294 37 364 C45.34621396 380.48385405 55.08694984 395.85596044 67 410 C67.43924805 410.52803223 67.87849609 411.05606445 68.33105469 411.60009766 C77.50329685 422.61361931 87.01176345 432.88223181 98.2734375 441.828125 C100.05316874 443.24579057 101.80998647 444.69284997 103.5390625 446.171875 C133.01636598 471.2854689 171.23682606 487.80908979 209 495 C209.80550293 495.15694336 210.61100586 495.31388672 211.44091797 495.47558594 C243.89911559 501.70081254 278.92000066 500.92678738 311 493 C312.25554687 492.70222656 313.51109375 492.40445312 314.8046875 492.09765625 C349.57561027 483.38623151 382.55887334 467.11274068 410 444 C410.52803223 443.56075195 411.05606445 443.12150391 411.60009766 442.66894531 C422.61361931 433.49670315 432.88223181 423.98823655 441.828125 412.7265625 C443.24579057 410.94683126 444.69284997 409.19001353 446.171875 407.4609375 C469.68782583 379.85888174 486.52044662 343.35457184 494 308 C494.13744629 307.35401855 494.27489258 306.70803711 494.41650391 306.04248047 C497.89968491 289.41244002 499.44203327 272.90799656 499.4375 255.9375 C499.43910126 254.64697723 499.43910126 254.64697723 499.44073486 253.3303833 C499.33535455 193.86167288 476.57452979 135.56257656 436 92 C434.80759878 90.62924817 433.61986117 89.25442137 432.4375 87.875 C426.41870001 81.00227415 419.96564382 74.98618555 412.83203125 69.27734375 C411.01600776 67.81701038 409.2195062 66.33185906 407.44921875 64.81640625 C376.71684385 38.65424795 335.61387564 21.23969724 296 14.875 C294.99710937 14.70613281 293.99421875 14.53726562 292.9609375 14.36328125 C262.34566152 9.33984449 230.16060925 10.95347468 200 18 Z " fill="#FEFEFE" transform="translate(0,0)"/>
<path d="M0 0 C3.51452835 0.34656652 5.23434243 1.85909981 7.671875 4.30859375 C8.33574219 4.97310547 8.99960937 5.63761719 9.68359375 6.32226562 C10.70646484 7.36930664 10.70646484 7.36930664 11.75 8.4375 C12.79607422 9.47874023 12.79607422 9.47874023 13.86328125 10.54101562 C19 15.73302195 19 15.73302195 19 18 C19.57105469 18.08121094 20.14210938 18.16242188 20.73046875 18.24609375 C23.71965155 19.23905809 25.13029167 20.80277094 27.3125 23.0625 C28.10011719 23.87589844 28.88773438 24.68929687 29.69921875 25.52734375 C32.29984873 28.32224829 34.81226406 31.1796498 37.30078125 34.07421875 C42.07626898 39.74369303 42.07626898 39.74369303 48 44 C48.33 44.99 48.66 45.98 49 47 C51.34328495 48.95701927 51.34328495 48.95701927 54.1875 50.875 C60.58684668 55.41647184 65.98213757 59.83884589 71.08203125 65.828125 C73.84208334 68.95356077 76.82445635 71.83594519 79.796875 74.7578125 C82.46071151 77.46888016 84.89698868 80.32812247 87.296875 83.2734375 C88.95061554 85.11013788 88.95061554 85.11013788 91.26171875 86.265625 C95.15754626 88.73316768 97.97259387 91.98036294 101.0625 95.375 C101.67416016 96.035 102.28582031 96.695 102.91601562 97.375 C105.40794438 100.07975294 107.82958426 102.78596034 110.12109375 105.6640625 C112.25185589 108.31311814 114.57644503 110.61409914 117 113 C119.77209153 115.83326177 122.51316234 118.69521954 125.25 121.5625 C125.9821875 122.31724609 126.714375 123.07199219 127.46875 123.84960938 C128.16484375 124.58115234 128.8609375 125.31269531 129.578125 126.06640625 C130.21137695 126.72584229 130.84462891 127.38527832 131.49707031 128.06469727 C133.07855911 130.10115952 133.45697774 131.52349947 134 134 C135.83181541 135.10386025 135.83181541 135.10386025 138 136 C139.41141092 137.05722667 140.78625718 138.16464256 142.125 139.3125 C142.80820312 139.88613281 143.49140625 140.45976562 144.1953125 141.05078125 C146 143 146 143 146.9375 145.44921875 C148.30289686 148.72717518 150.17244366 150.22247477 152.875 152.5 C156.33913241 155.43675703 159.34612207 158.29691451 162 162 C162 162.66 162 163.32 162 164 C147.01392071 164.18716384 132.02793224 164.32809234 117.0409317 164.41449738 C110.08157706 164.45568975 103.12295 164.51181286 96.1640625 164.60351562 C89.44665037 164.69199383 82.73014964 164.73829116 76.01213074 164.75901794 C73.45082206 164.77378582 70.88955416 164.80262493 68.3285675 164.84584045 C64.73702093 164.9040291 61.14858367 164.91190807 57.55664062 164.90820312 C56.50071716 164.93696533 55.4447937 164.96572754 54.35687256 164.99536133 C48.66146765 164.93190472 45.61813542 164.25775502 41.49255371 160.18933105 C40.30010141 158.81694693 39.13463992 157.42055374 38 156 C36.85720484 154.68485381 35.71180362 153.37196228 34.5625 152.0625 C33.99660156 151.40378906 33.43070313 150.74507812 32.84765625 150.06640625 C30.81089408 147.78850522 28.67525925 145.64581412 26.5 143.5 C21.47794046 138.53772689 16.8579788 133.31354029 12.4375 127.8125 C7.78303484 122.31667043 7.78303484 122.31667043 1.375 119.4375 C-1.82274148 120.19485982 -2.94253558 121.46246055 -5 124 C-5.7734375 125.36125 -5.7734375 125.36125 -6.5625 126.75 C-7.036875 127.4925 -7.51125 128.235 -8 129 C-8.99 129 -9.98 129 -11 129 C-11.2165625 129.54527344 -11.433125 130.09054688 -11.65625 130.65234375 C-13.45137736 133.78859824 -15.9132246 136.08601348 -18.5 138.5625 C-21.28371756 141.24911113 -23.83893222 143.75839833 -26 147 C-26.66 147 -27.32 147 -28 147 C-28 147.99 -28 148.98 -28 150 C-29.42578125 151.5703125 -29.42578125 151.5703125 -31.3125 153.125 C-31.92738281 153.64320313 -32.54226562 154.16140625 -33.17578125 154.6953125 C-35 156 -35 156 -38 157 C-38.81920619 158.3501203 -39.63064054 159.70496495 -40.4375 161.0625 C-42.49857767 163.59816792 -44.02146443 164.83935428 -47.28125 165.37451172 C-53.19343725 165.71872947 -59.098762 165.43434448 -65 165 C-63.28583351 161.31350941 -61.7474519 158.38433656 -58.75 155.625 C-56.23018264 153.2211575 -53.88558113 150.77461137 -51.625 148.125 C-48.32363312 144.29067703 -44.77916626 140.75981752 -41.17578125 137.2109375 C-39.24234577 135.24626159 -37.45771566 133.23547609 -35.6875 131.125 C-32.25018638 127.11213619 -28.396193 123.60949384 -24.484375 120.07348633 C-18.75915358 114.89759128 -13.32028785 109.57064757 -8.25 103.75 C-7.67894531 103.09644531 -7.10789063 102.44289063 -6.51953125 101.76953125 C-5.29883876 100.34800503 -4.11234012 98.89714984 -2.9375 97.4375 C-1 96 -1 96 1.875 95.8125 C5.41022112 97.15588403 6.70099632 98.84286527 8.97265625 101.77734375 C11.67373814 104.73864548 14.74829375 107.02503453 17.9375 109.4375 C23.28106569 113.51303017 27.88783126 117.63949432 32 123 C34.0940141 125.70990059 35.72598867 127.80134179 38.5 129.8125 C41.34663159 132.30330264 42.30177404 134.41995969 43.6171875 137.90234375 C45.8684379 141.31737614 48.28791527 143.38757495 52 145 C57.18780518 145.69819402 62.33897262 145.58297602 67.55859375 145.48828125 C69.07315397 145.47894426 70.5877294 145.47183233 72.10231018 145.46684265 C76.06959452 145.44784204 80.03594915 145.39880345 84.00286865 145.34332275 C88.05842516 145.29197887 92.11413335 145.2692965 96.16992188 145.24414062 C104.11370572 145.19067591 112.05673689 145.1054498 120 145 C119.20041526 141.1699891 117.99781852 139.58145484 115 137 C114.236875 136.566875 113.47375 136.13375 112.6875 135.6875 C107.79721243 132.61685432 103.98446177 128.28460043 100.375 123.8125 C98.09178359 120.92462311 98.09178359 120.92462311 95.1875 118.75 C94.465625 118.1725 93.74375 117.595 93 117 C93 116.34 93 115.68 93 115 C91.68 114.67 90.36 114.34 89 114 C89 113.01 89 112.02 89 111 C88.42475586 110.74927734 87.84951172 110.49855469 87.25683594 110.24023438 C84.69558804 108.83271173 82.95942608 107.21829975 80.890625 105.15625 C80.13652344 104.40472656 79.38242187 103.65320313 78.60546875 102.87890625 C77.82816406 102.09386719 77.05085938 101.30882812 76.25 100.5 C75.45722656 99.71496094 74.66445313 98.92992187 73.84765625 98.12109375 C73.09871094 97.36957031 72.34976562 96.61804688 71.578125 95.84375 C70.89137695 95.15474609 70.20462891 94.46574219 69.49707031 93.75585938 C68 92 68 92 68 90 C67.01 90 66.02 90 65 90 C63.26946397 88.39974983 61.61038243 86.72111127 60 85 C59.20980469 84.23300781 58.41960937 83.46601563 57.60546875 82.67578125 C52.6643393 77.84640594 48.23376587 72.89579413 44 67.44140625 C41.26907569 64.10775841 38.2332966 61.1517519 35.15234375 58.14453125 C32.57554112 55.57708181 30.20136353 52.87884116 27.83203125 50.12109375 C25.64875267 47.59333198 23.42130684 45.10819517 21.1875 42.625 C20.43855469 41.79226562 19.68960938 40.95953125 18.91796875 40.1015625 C17.64342404 38.70501453 16.33693875 37.33693875 15 36 C15 35.01 15 34.02 15 33 C14.113125 32.773125 13.22625 32.54625 12.3125 32.3125 C8.5358753 30.81610154 6.61382024 29.07508263 4 26 C4 25.34 4 24.68 4 24 C1.69 24.33 -0.62 24.66 -3 25 C-3.33 25.99 -3.66 26.98 -4 28 C-4.66 28 -5.32 28 -6 28 C-6 28.99 -6 29.98 -6 31 C-7.6120747 32.77069249 -9.25319499 34.36831834 -11 36 C-12.39713102 37.37756432 -13.78998595 38.75947235 -15.1796875 40.14453125 C-15.94410156 40.90443359 -16.70851562 41.66433594 -17.49609375 42.44726562 C-18.67365234 43.61805664 -18.67365234 43.61805664 -19.875 44.8125 C-20.65230469 45.58142578 -21.42960938 46.35035156 -22.23046875 47.14257812 C-26.4768728 51.37114014 -30.56338941 55.66656789 -34.44775391 60.23120117 C-36.06097501 62.06948159 -37.75371354 63.78834172 -39.5 65.5 C-41.9957103 67.9509442 -44.33622829 70.4795366 -46.625 73.125 C-50.35643673 77.43688245 -54.22302253 81.37159179 -58.625 85 C-61.50971068 87.4337816 -63.06500337 89.74920565 -65 93 C-71.84886878 100.61628959 -71.84886878 100.61628959 -76 102 C-77.32126899 103.66224163 -78.39795774 105.41170114 -79.5234375 107.2109375 C-81.38531363 109.46686149 -83.49225786 110.50048752 -86 112 C-87.83888564 113.67886462 -89.62812457 115.41309502 -91.375 117.1875 C-91.85396729 117.6729126 -92.33293457 118.1583252 -92.82641602 118.65844727 C-96.20572076 122.11053528 -99.42500069 125.67532976 -102.5703125 129.33984375 C-104.29123779 131.33818596 -106.02753063 133.24669389 -108 135 C-108.66 135 -109.32 135 -110 135 C-110 135.66 -110 136.32 -110 137 C-111.46655273 138.42773437 -111.46655273 138.42773437 -113.49609375 140.09375 C-118.02261122 143.94373096 -122.03784359 148.13572661 -126.0625 152.5 C-130.46876981 157.25044325 -134.90823207 161.93778516 -139.51049805 166.49902344 C-141.22045238 168.22215067 -142.81382542 170.01645884 -144.375 171.875 C-149.4965167 177.80034219 -154.96422918 183.37817334 -161 188.375 C-164.18654604 190.71677229 -164.18654604 190.71677229 -165 194 C-41.25 194 82.5 194 210 194 C208.94339623 199.28301887 208.94339623 199.28301887 206 202 C205.5875 202.7425 205.175 203.485 204.75 204.25 C202.36619955 207.99597213 199.40848416 211.15001445 196 214 C195.34 214 194.68 214 194 214 C193.938125 214.598125 193.87625 215.19625 193.8125 215.8125 C193 218 193 218 190.7421875 219.34375 C187.75720599 221.14664482 185.70706132 223.16284367 183.3125 225.6875 C181.91312293 227.16213769 180.48337214 228.60988505 179 230 C178.34 230 177.68 230 177 230 C177 230.66 177 231.32 177 232 C175.671875 233.26953125 175.671875 233.26953125 173.75 234.8125 C168.20541108 239.52588952 163.4390597 244.89150719 158.56542969 250.27734375 C156.99373089 252.00689876 155.40939717 253.72391579 153.8203125 255.4375 C153.0619812 256.2569812 153.0619812 256.2569812 152.28833008 257.09301758 C151.32326359 258.13567254 150.35700295 259.1772238 149.3894043 260.2175293 C146.90599992 262.90100828 146.90599992 262.90100828 145 266 C144.07058594 266.44988281 143.14117187 266.89976562 142.18359375 267.36328125 C138.94526336 269.02814068 137.38122111 270.43253688 135.0625 273.1875 C130.87726959 278.02265527 126.56890189 282.7165552 122.1875 287.375 C121.54111572 288.06489014 120.89473145 288.75478027 120.22875977 289.46557617 C118.49160055 291.31593487 116.74689458 293.15883883 115 295 C114.23300781 295.81726563 113.46601563 296.63453125 112.67578125 297.4765625 C111 299 111 299 109 299 C109 299.66 109 300.32 109 301 C107.6015625 302.33984375 107.6015625 302.33984375 105.625 303.9375 C98.75718247 309.77698122 92.62751796 316.25730933 88 324 C86.11758384 325.93989452 84.18616917 327.37200168 82 329 C81.34 329 80.68 329 80 329 C79.6596875 329.86625 79.6596875 329.86625 79.3125 330.75 C77.22609158 334.32670014 74.19265838 336.3260596 70.62890625 338.33984375 C62.78269572 343.29473153 56.78501878 351.24304368 51.10546875 358.45703125 C48.87397306 361.15221435 46.50500737 363.55662089 44 366 C33.47835866 376.2863253 33.47835866 376.2863253 23.6015625 387.1796875 C20.95514929 390.18756202 18.06386699 392.9476405 15.203125 395.75 C12.50525059 398.50527599 10.08441977 401.4380112 7.703125 404.46875 C5.44301027 406.50077975 4.03194257 406.89106793 1 407 C-2.78262947 405.24835159 -5.47561042 402.76945869 -8.375 399.8125 C-9.14972656 399.02359375 -9.92445313 398.2346875 -10.72265625 397.421875 C-13.39397398 394.58102252 -15.92551504 391.64659273 -18.39453125 388.62890625 C-20.14594228 386.85192717 -21.78294249 386.10636788 -24 385 C-25.640625 383.37109375 -25.640625 383.37109375 -27.25 381.4375 C-28.15105469 380.37402344 -28.15105469 380.37402344 -29.0703125 379.2890625 C-29.70710937 378.53367187 -30.34390625 377.77828125 -31 377 C-35.98840194 371.29084037 -41.06645463 365.7904456 -46.5625 360.5625 C-49.10696659 357.88754794 -50.9872071 355.08628245 -53 352 C-53.5775 351.443125 -54.155 350.88625 -54.75 350.3125 C-56 349 -56 349 -56 346 C-56.88171875 345.87044922 -56.88171875 345.87044922 -57.78125 345.73828125 C-60.61194539 344.79637733 -61.62508785 343.48426739 -63.5 341.1875 C-64.10714844 340.46820313 -64.71429688 339.74890625 -65.33984375 339.0078125 C-65.88769531 338.34523438 -66.43554688 337.68265625 -67 337 C-68.91621575 334.579887 -68.91621575 334.579887 -71 333 C-71.928125 332.938125 -72.85625 332.87625 -73.8125 332.8125 C-78.23315306 331.68566687 -79.40775898 329.2947792 -82.0078125 325.68359375 C-84.22879894 322.69179436 -86.62548747 319.95031429 -89.125 317.1875 C-90.33542969 315.84751953 -90.33542969 315.84751953 -91.5703125 314.48046875 C-93.91577267 312.08598771 -96.38069768 310.08353594 -99 308 C-100.15988087 306.76092021 -101.28714554 305.49027205 -102.375 304.1875 C-104.69269725 301.4557479 -107.07255086 298.94696525 -109.6875 296.5 C-112.16261071 294.10666608 -113.52071728 292.11866586 -114.8125 288.9375 C-116.86129069 284.37587629 -120.06603531 282.88356692 -124.33984375 280.5546875 C-130.86989766 276.7382977 -135.76342148 271.56422425 -140.05078125 265.421875 C-143.4509487 261.19721805 -147.42239962 257.50311094 -151.3269043 253.74755859 C-151.92801025 253.16312988 -152.52911621 252.57870117 -153.1484375 251.9765625 C-153.69677246 251.45143066 -154.24510742 250.92629883 -154.81005859 250.38525391 C-156 249 -156 249 -156 247 C-156.61875 246.855625 -157.2375 246.71125 -157.875 246.5625 C-160 246 -160 246 -162 245 C-161.67 243.68 -161.34 242.36 -161 241 C-145.54450913 240.71895633 -130.08921075 240.50771975 -114.6317625 240.37825394 C-107.4534249 240.31652529 -100.27667998 240.23246672 -93.09936523 240.09472656 C-86.83920819 239.97464549 -80.58020486 239.89759341 -74.31892806 239.87093806 C-71.00649312 239.85536662 -67.69810326 239.81271957 -64.38654137 239.73123932 C-42.64276311 239.21769009 -42.64276311 239.21769009 -36.97207642 243.57556152 C-34.07436016 246.37914716 -31.98687233 249.48922706 -30 253 C-28.23987144 255.944756 -26.62037121 258.63291292 -24.29296875 261.15625 C-23.5359668 261.97802734 -23.5359668 261.97802734 -22.76367188 262.81640625 C-22.24353516 263.37199219 -21.72339844 263.92757813 -21.1875 264.5 C-20.67896484 265.05558594 -20.17042969 265.61117188 -19.64648438 266.18359375 C-17.17125672 268.85018881 -14.67308511 271.3402641 -11.8515625 273.640625 C-9.34246775 275.71664312 -7.28292531 277.77143823 -5.1875 280.25 C-4.60355469 280.93578125 -4.01960937 281.6215625 -3.41796875 282.328125 C-2.95003906 282.87984375 -2.48210937 283.4315625 -2 284 C-0.96381967 285.22600116 -0.96381967 285.22600116 1.23828125 285.40625 C5.17751009 284.82678777 6.79956349 282.44066614 9.1875 279.5 C10.75493266 277.62092756 12.3443812 275.80506403 14 274 C14.66 274 15.32 274 16 274 C16 273.01 16 272.02 16 271 C16.66 271 17.32 271 18 271 C18.33 270.01 18.66 269.02 19 268 C19.66 268 20.32 268 21 268 C21.2165625 267.45472656 21.433125 266.90945313 21.65625 266.34765625 C23.45137736 263.21140176 25.9132246 260.91398652 28.5 258.4375 C31.28371756 255.75088887 33.83893222 253.24160167 36 250 C36.7425 249.566875 37.485 249.13375 38.25 248.6875 C40.69177753 247.18913652 42.23110029 245.85021706 44.1875 243.8125 C45.115625 242.884375 46.04375 241.95625 47 241 C47.66 241 48.32 241 49 241 C49 240.34 49 239.68 49 239 C56.26 239 63.52 239 71 239 C72 243 72 243 70.5234375 245.47265625 C69.81445312 246.32730469 69.10546875 247.18195313 68.375 248.0625 C67.68148438 248.91972656 66.98796875 249.77695312 66.2734375 250.66015625 C64 253 64 253 61.73046875 254.34765625 C57.64466811 256.82017939 54.39010172 260.09645244 50.9375 263.375 C50.23044922 264.035 49.52339844 264.695 48.79492188 265.375 C45.8621662 268.13977624 43.14465544 270.81840619 40.62890625 273.9765625 C40.09136719 274.64429688 39.55382812 275.31203125 39 276 C38.34 276 37.68 276 37 276 C36.75894531 276.56847656 36.51789063 277.13695312 36.26953125 277.72265625 C34.75031912 280.44788908 32.92581019 282.26690339 30.6875 284.4375 C29.87796875 285.22769531 29.0684375 286.01789063 28.234375 286.83203125 C27.49703125 287.54746094 26.7596875 288.26289063 26 289 C25.154375 289.86625 24.30875 290.7325 23.4375 291.625 C21.38931567 293.62066678 19.30073223 295.46125556 17.125 297.3125 C9.70013055 303.67864305 9.70013055 303.67864305 5 312 C2.39453125 312.4296875 2.39453125 312.4296875 -1 312 C-3.48552721 310.02735936 -5.35108315 307.60583293 -7.3125 305.125 C-8.452523 303.74819923 -9.5931505 302.37189877 -10.734375 300.99609375 C-11.28802734 300.31659668 -11.84167969 299.63709961 -12.41210938 298.93701172 C-14.57327532 296.30068168 -16.80042204 293.73795544 -19.0625 291.1875 C-19.73410156 290.41792969 -20.40570313 289.64835937 -21.09765625 288.85546875 C-22.8729948 286.91048757 -22.8729948 286.91048757 -25.12109375 286.05078125 C-27 285 -27 285 -27.88671875 282.75 C-29.39077798 279.03470983 -31.96506707 276.71315254 -34.8125 274 C-35.33392578 273.49210937 -35.85535156 272.98421875 -36.39257812 272.4609375 C-37.42842475 271.4522479 -38.46761521 270.44697985 -39.51025391 269.4453125 C-40.90747985 268.08976062 -42.27336333 266.70211263 -43.63671875 265.3125 C-48.03773753 261.00604856 -50.19676226 259.62326391 -56.51269531 259.65942383 C-57.47917496 259.65876671 -57.47917496 259.65876671 -58.46517944 259.65809631 C-60.58647381 259.66017976 -62.70696938 259.68348819 -64.828125 259.70703125 C-66.30213998 259.71262882 -67.77616055 259.71689816 -69.25018311 259.71989441 C-73.12353006 259.73133059 -76.99653776 259.76078686 -80.86975098 259.79400635 C-84.82457897 259.82473389 -88.77946196 259.83840546 -92.734375 259.85351562 C-100.48973774 259.88565804 -108.24482127 259.93683915 -116 260 C-115.30493704 263.49180937 -114.17418805 265.05731575 -111.56494141 267.50927734 C-109.73510686 269.25233034 -108.01770723 271.07868991 -106.29296875 272.92578125 C-105.62330078 273.64056641 -104.95363281 274.35535156 -104.26367188 275.09179688 C-102.89086901 276.56016644 -101.51846631 278.02891024 -100.14648438 279.49804688 C-91.25772744 289.00536487 -91.25772744 289.00536487 -81.6875 297.8125 C-78.18165297 300.80633692 -78.18165297 300.80633692 -76.58203125 302.51171875 C-74.98060073 304.13788891 -74.98060073 304.13788891 -72.59375 305.3515625 C-69.51074524 307.31094203 -67.73891036 309.49752718 -65.5 312.375 C-62.52355194 316.17940369 -59.46243234 319.63142878 -56 323 C-55.01933754 323.97766858 -54.04023153 324.95690029 -53.0625 325.9375 C-52.30839844 326.69160156 -52.30839844 326.69160156 -51.5390625 327.4609375 C-46.9375 332.0625 -46.9375 332.0625 -45.45043945 333.55541992 C-44.05747423 334.94275795 -42.64434748 336.30976301 -41.23046875 337.67578125 C-39 340 -39 340 -37.3125 343.1875 C-33.88615625 349.59083095 -27.86872897 354.78379745 -22.18359375 359.17578125 C-21.46300781 359.77777344 -20.74242187 360.37976563 -20 361 C-20 361.66 -20 362.32 -20 363 C-19.41138184 363.259021 -18.82276367 363.51804199 -18.21630859 363.78491211 C-15.8364833 365.08964779 -14.38302978 366.4604332 -12.5390625 368.44140625 C-11.90226563 369.10720703 -11.26546875 369.77300781 -10.609375 370.45898438 C-9.28817481 371.85950859 -7.97302999 373.26577044 -6.6640625 374.67773438 C-3.70284876 377.7553668 -1.7786115 379.74683743 2.33984375 381.0859375 C5.15470723 381.2783908 5.15470723 381.2783908 7.1875 379.0625 C7.785625 378.381875 8.38375 377.70125 9 377 C9.99 377 10.98 377 12 377 C12.38865234 376.11634766 12.38865234 376.11634766 12.78515625 375.21484375 C14.08423419 372.84642835 15.4675963 371.39684043 17.4375 369.5625 C19.51612372 367.55628736 20.98948532 366.0182864 22.4375 363.5 C24.49163343 360.21338652 27.20712174 358.16647738 30.15625 355.6875 C32.14412162 354.02913703 32.14412162 354.02913703 33.5 351.5 C35.51825465 348.13624225 38.25258491 346.03312125 41.2578125 343.55078125 C43.10452313 342.09990784 43.10452313 342.09990784 44 340 C44.66 340 45.32 340 46 340 C46 339.34 46 338.68 46 338 C46.99 338 47.98 338 49 338 C49.22945313 337.43023437 49.45890625 336.86046875 49.6953125 336.2734375 C51.33808561 333.41088076 53.35841113 331.75327248 55.875 329.625 C59.70336481 326.26968027 62.42752296 323.35342268 65 319 C69.37800096 313.20974066 74.44099939 308.63250051 80 304 C81.67625678 302.34297895 83.34201694 300.67530527 85 299 C86.20269531 297.81470703 86.20269531 297.81470703 87.4296875 296.60546875 C91.24287679 292.83491896 95.01145626 289.07547882 98.5 285 C103.69746309 278.93835064 109.30407664 272.43049318 116 268 C116.66 268 117.32 268 118 268 C118.22171875 267.46117187 118.4434375 266.92234375 118.671875 266.3671875 C120.43785944 263.21957993 122.79362706 260.73717086 125.25 258.125 C125.74363037 257.59487305 126.23726074 257.06474609 126.74584961 256.51855469 C128.15827307 255.00695267 129.57786208 253.50245801 131 252 C131.98419922 250.95199219 131.98419922 250.95199219 132.98828125 249.8828125 C134.2799537 248.54306291 135.63252572 247.26228395 137 246 C137.66 246 138.32 246 139 246 C139 245.34 139 244.68 139 244 C140.42578125 242.4921875 140.42578125 242.4921875 142.3125 240.875 C143.23482422 240.06675781 143.23482422 240.06675781 144.17578125 239.2421875 C146 238 146 238 149 238 C149.2475 237.4225 149.495 236.845 149.75 236.25 C151.17288843 233.68880083 152.9333048 232.0666952 155 230 C155.495 229.175 155.99 228.35 156.5 227.5 C158.08104206 224.86492991 159.65313987 222.98016323 162 221 C162.99 221 163.98 221 165 221 C166.07525194 218.34771188 167.09456151 215.71631546 168 213 C43.92 213 -80.16 213 -208 213 C-208.33 211.68 -208.66 210.36 -209 209 C-206.98046875 206.52734375 -206.98046875 206.52734375 -204.1875 203.9375 C-201.41869268 201.34052275 -199.1091548 199.1637322 -197 196 C-196.0409375 195.566875 -196.0409375 195.566875 -195.0625 195.125 C-192.29368198 193.61473562 -191.59959456 191.70700618 -190 189 C-187.31536411 185.81049228 -184.90172928 183.43258635 -181.109375 181.61328125 C-177.76717538 179.87920029 -175.67413942 178.00879548 -173.0625 175.3125 C-172.20785156 174.43464844 -171.35320312 173.55679688 -170.47265625 172.65234375 C-167.67189843 169.64805534 -164.98321935 166.57093508 -162.375 163.3984375 C-161.694375 162.70621094 -161.694375 162.70621094 -161 162 C-160.34 162 -159.68 162 -159 162 C-159 161.01 -159 160.02 -159 159 C-158.34 159 -157.68 159 -157 159 C-156.67 158.01 -156.34 157.02 -156 156 C-155.34 156 -154.68 156 -154 156 C-153.7525 155.42378906 -153.505 154.84757813 -153.25 154.25390625 C-151.81305755 151.6629194 -150.14041667 149.97955193 -148 147.9375 C-145.62557202 145.66346144 -143.83652048 143.75478071 -142 141 C-141.34 141 -140.68 141 -140 141 C-139.67322266 140.18015625 -139.67322266 140.18015625 -139.33984375 139.34375 C-137.56100793 136.23208383 -135.12853193 133.95562899 -132.5625 131.5 C-128.70026317 127.80360056 -128.70026317 127.80360056 -125.33984375 123.65625 C-124.67662109 122.83640625 -124.67662109 122.83640625 -124 122 C-123.01 122 -122.02 122 -121 122 C-121 121.34 -121 120.68 -121 120 C-119.37174465 118.27093334 -117.71881885 116.6350408 -116 115 C-114.91048406 113.92678521 -113.82333577 112.85116272 -112.73828125 111.7734375 C-112.17689453 111.2165625 -111.61550781 110.6596875 -111.03710938 110.0859375 C-110.46798828 109.52132812 -109.89886719 108.95671875 -109.3125 108.375 C-108.44141602 107.51648438 -108.44141602 107.51648438 -107.55273438 106.640625 C-106.99521484 106.08632812 -106.43769531 105.53203125 -105.86328125 104.9609375 C-105.36094971 104.46384277 -104.85861816 103.96674805 -104.34106445 103.45458984 C-102.77558067 101.83255322 -102.77558067 101.83255322 -101 99 C-99.34928604 97.97388051 -97.68029994 96.97691857 -96 96 C-95.13375 95.278125 -94.2675 94.55625 -93.375 93.8125 C-91 92 -91 92 -88 92 C-87.78730469 91.29746094 -87.57460937 90.59492188 -87.35546875 89.87109375 C-85.64253587 86.24283535 -83.16538365 83.80128573 -80.3125 81.0625 C-79.77375244 80.53325928 -79.23500488 80.00401855 -78.67993164 79.45874023 C-75.8564456 76.70735764 -72.98147297 74.07083824 -69.9375 71.5625 C-67.00023582 69.29947978 -67.00023582 69.29947978 -65.81640625 66.828125 C-63.13889448 62.65926797 -59.61384791 59.54734971 -56 56.1875 C-55.27554688 55.49462891 -54.55109375 54.80175781 -53.8046875 54.08789062 C-53.10601562 53.43369141 -52.40734375 52.77949219 -51.6875 52.10546875 C-51.05199219 51.50887451 -50.41648438 50.91228027 -49.76171875 50.29760742 C-48 49 -48 49 -45 49 C-44.90460938 48.40058594 -44.80921875 47.80117187 -44.7109375 47.18359375 C-43.84452039 44.52245549 -42.82912578 43.74116964 -40.625 42.0625 C-38.43432336 40.38919593 -37.07166508 39.12048043 -35.65234375 36.734375 C-33.4820915 33.14294102 -30.7882323 30.24990344 -27.9375 27.1875 C-27.39544922 26.59001953 -26.85339844 25.99253906 -26.29492188 25.37695312 C-24.90725786 23.87608042 -23.45790862 22.4327361 -22 21 C-21.34 21 -20.68 21 -20 21 C-20 20.34 -20 19.68 -20 19 C-18.53125 17.5546875 -18.53125 17.5546875 -16.5 15.875 C-11.34356287 11.49568549 -6.43745736 6.82610706 -2.015625 1.69921875 C-1.35046875 1.13847656 -0.6853125 0.57773437 0 0 Z " fill="#1832E8" transform="translate(255,48)"/>
<path d="M0 0 C15.33383166 -0.24551987 30.53261947 -0.32494234 45.70947266 2.06201172 C46.45648438 2.17496582 47.20349609 2.28791992 47.97314453 2.40429688 C71.35799903 6.08963154 94.38865761 13.86647379 115.70947266 24.06201172 C116.43457031 24.4066748 117.15966797 24.75133789 117.90673828 25.10644531 C134.24273692 33.00117976 149.95703966 43.23220505 163.70947266 55.06201172 C164.81290076 55.98346978 165.91713372 56.9039645 167.02197266 57.82373047 C177.43089628 66.54598361 187.06553109 75.67025903 195.53759766 86.33544922 C196.95526323 88.11518046 198.40232262 89.87199819 199.88134766 91.60107422 C224.16528532 120.10456133 241.22570529 157.64754754 248.17431641 194.25 C248.53341114 196.13688558 248.90864295 198.02076609 249.29931641 199.90136719 C252.30307566 214.51033685 253.08085889 228.75817047 253.08447266 243.62451172 C253.08637604 244.4645575 253.08827942 245.30460327 253.09024048 246.17010498 C253.08641547 261.06104571 251.89564364 275.65031982 248.83447266 290.24951172 C248.66085205 291.090625 248.48723145 291.93173828 248.30834961 292.79833984 C240.20021926 331.1663204 223.00569897 368.02849211 197.70947266 398.06201172 C197.27022461 398.59004395 196.83097656 399.11807617 196.37841797 399.66210938 C187.2061758 410.67563103 177.6977092 420.94424353 166.43603516 429.89013672 C164.65630392 431.30780229 162.89948619 432.75486168 161.17041016 434.23388672 C123.68448191 466.17053858 70.82941614 486.14140959 21.70947266 487.06201172 C20.80680664 487.08247559 19.90414062 487.10293945 18.97412109 487.12402344 C-3.20011381 487.5620062 -24.66915023 486.11348731 -46.29052734 481.06201172 C-47.05751953 480.88831055 -47.82451172 480.71460938 -48.61474609 480.53564453 C-88.13351881 471.46108764 -124.66167887 451.65855651 -154.29052734 424.06201172 C-155.66127917 422.8696105 -157.03610598 421.68187289 -158.41552734 420.49951172 C-165.28825319 414.48071173 -171.30434179 408.02765554 -177.01318359 400.89404297 C-178.47351696 399.07801948 -179.95866829 397.28151792 -181.47412109 395.51123047 C-204.98850071 367.88916956 -221.78629256 331.42343026 -229.29052734 296.06201172 C-229.56509766 294.79615234 -229.83966797 293.53029297 -230.12255859 292.22607422 C-237.04541268 258.05513926 -236.23083082 221.96869422 -228.29052734 188.06201172 C-228.11150879 187.27906738 -227.93249023 186.49612305 -227.74804688 185.68945312 C-216.36974991 136.67447004 -187.62525493 88.6774827 -148.00537109 57.22607422 C-146.26264341 55.83690711 -144.54368878 54.41706927 -142.85693359 52.96044922 C-104.08463701 19.69248803 -50.81007991 0.95754268 0 0 Z M-138.29052734 70.06201172 C-139.20060547 70.84189453 -140.11068359 71.62177734 -141.04833984 72.42529297 C-151.68607989 81.78034732 -161.66989387 91.80854952 -170.29052734 103.06201172 C-170.71543457 103.61050781 -171.1403418 104.15900391 -171.578125 104.72412109 C-202.23320305 144.47975308 -218.48108037 192.28979749 -218.47583008 242.41430664 C-218.47800777 244.72870544 -218.49621326 247.04261903 -218.51513672 249.35693359 C-218.62734356 278.85401801 -212.54018074 308.68466429 -199.24707031 335.11474609 C-198.18767545 337.27139065 -197.19137058 339.45110387 -196.20068359 341.64013672 C-189.01169967 357.43927573 -180.28183484 371.6322623 -169.29052734 385.06201172 C-168.6224707 385.88451416 -168.6224707 385.88451416 -167.94091797 386.72363281 C-156.39368611 400.84822636 -143.71347033 413.98450365 -128.99072266 424.81054688 C-127.29416231 426.05933613 -125.6165676 427.33088275 -123.93896484 428.60498047 C-114.89972318 435.36679264 -105.25623091 440.79228593 -95.29052734 446.06201172 C-94.68772949 446.3879834 -94.08493164 446.71395508 -93.46386719 447.04980469 C-61.66571625 464.22832696 -26.63305665 471.30299931 9.27197266 471.24951172 C10.02303284 471.24890747 10.77409302 471.24830322 11.5479126 471.24768066 C23.03700108 471.22262401 34.35256575 470.92199625 45.70947266 469.06201172 C46.87712158 468.87662842 46.87712158 468.87662842 48.06835938 468.6875 C65.90488062 465.75444638 83.30368358 460.68156876 99.51806641 452.64013672 C101.6881169 451.56706401 103.89160583 450.55963897 106.11962891 449.61279297 C129.29588396 439.60085254 149.61711699 424.48981805 167.70947266 407.06201172 C168.23460449 406.55879395 168.75973633 406.05557617 169.30078125 405.53710938 C176.31503723 398.78352565 182.76474668 391.79424121 188.70947266 384.06201172 C189.13583008 383.51206543 189.5621875 382.96211914 190.00146484 382.39550781 C196.98649246 373.33609294 203.03290646 363.91780219 208.64306641 353.95263672 C209.5786996 352.29385845 210.53321187 350.64575833 211.49072266 348.99951172 C215.32204457 342.2751508 218.03908313 335.31279819 220.70947266 328.06201172 C221.39034886 326.35102761 222.07735862 324.64246485 222.77197266 322.93701172 C223.42005307 321.31290659 224.06589011 319.68790446 224.70947266 318.06201172 C225.03818359 317.23701172 225.36689453 316.41201172 225.70556641 315.56201172 C231.21380846 301.15913757 233.71974555 286.28723037 235.70947266 271.06201172 C235.97074951 269.18703003 235.97074951 269.18703003 236.23730469 267.27416992 C236.74110978 263.20807045 236.87019716 259.16808462 236.87744141 255.07373047 C236.88167618 254.33726288 236.88591095 253.60079529 236.89027405 252.8420105 C236.90009089 250.47778505 236.90020671 248.11375379 236.89697266 245.74951172 C236.89636841 244.94077606 236.89576416 244.13204041 236.8951416 243.29879761 C236.87102357 231.43640398 236.58952678 219.79577687 234.70947266 208.06201172 C234.59651855 207.28067871 234.48356445 206.4993457 234.3671875 205.69433594 C230.91616301 182.23014132 222.68116389 160.00681372 211.70947266 139.06201172 C211.29552246 138.2644043 210.88157227 137.46679688 210.45507812 136.64501953 C200.18607789 117.02195929 186.92881407 100.11656089 171.70947266 84.06201172 C171.23638672 83.56024414 170.76330078 83.05847656 170.27587891 82.54150391 C162.68182478 74.54099295 154.54499061 67.65075574 145.70947266 61.06201172 C144.87077637 60.42416748 144.87077637 60.42416748 144.01513672 59.7734375 C121.35638704 42.57104173 94.8574199 31.10584794 67.70947266 23.06201172 C66.85095703 22.79388672 65.99244141 22.52576172 65.10791016 22.24951172 C59.21220462 20.49722772 53.27388214 19.40544324 47.20947266 18.43701172 C46.43845215 18.31382568 45.66743164 18.19063965 44.87304688 18.0637207 C33.32052013 16.30445884 21.87670656 15.8543721 10.20947266 15.87451172 C9.45325623 15.87578064 8.69703979 15.87704956 7.91790771 15.87835693 C-46.07997139 16.05095615 -97.34726518 34.69759615 -138.29052734 70.06201172 Z " fill="#1732E8" transform="translate(246.29052734375,11.93798828125)"/>
<path d="M0 0 C0.99 0.33 1.98 0.66 3 1 C2.401875 1.391875 1.80375 1.78375 1.1875 2.1875 C-1.08843149 3.85682115 -1.08843149 3.85682115 -2.25 6.1875 C-4.37770944 9.60703303 -6.99424497 12.07762218 -9.87109375 14.875 C-12.54570312 17.54470183 -15.00408297 20.36582637 -17.45703125 23.23828125 C-18.90239739 24.88856005 -20.44879025 26.44879025 -22 28 C101.09 28.33 224.18 28.66 351 29 C351 29.33 351 29.66 351 30 C227.25 30 103.5 30 -24 30 C-24.33 28.68 -24.66 27.36 -25 26 C-22.98046875 23.52734375 -22.98046875 23.52734375 -20.1875 20.9375 C-17.41869268 18.34052275 -15.1091548 16.1637322 -13 13 C-12.360625 12.71125 -11.72125 12.4225 -11.0625 12.125 C-8.29368198 10.61473562 -7.59959456 8.70700618 -6 6 C-4.07978313 3.90207669 -2.05831767 1.96683688 0 0 Z " fill="#6475EC" transform="translate(71,231)"/>
<path d="M0 0 C123.75 0 247.5 0 375 0 C373.94339623 5.28301887 373.94339623 5.28301887 371 8 C370.5875 8.7425 370.175 9.485 369.75 10.25 C367.36619955 13.99597213 364.40848416 17.15001445 361 20 C360.34 20 359.68 20 359 20 C358.938125 20.598125 358.87625 21.19625 358.8125 21.8125 C357.66505917 24.90176378 355.83596189 25.33541367 353 27 C350.5711552 29.24278423 348.27743467 31.60442751 346 34 C346 31 346 31 347.72265625 29.01953125 C348.49480469 28.29121094 349.26695312 27.56289063 350.0625 26.8125 C352.96873511 24.00570061 355.76290183 21.20740295 358.375 18.125 C361.82378273 14.09057492 365.55932472 10.38268803 369.35693359 6.68017578 C372.01976852 4.10113013 372.01976852 4.10113013 374 1 C250.58 1 127.16 1 0 1 C0 0.67 0 0.34 0 0 Z " fill="#6D7DED" transform="translate(90,242)"/>
<path d="M0 0 C124.08 0 248.16 0 376 0 C375 5 375 5 373 8 C371.34467377 9.01866229 369.67739862 10.01810813 368 11 C366.04677006 12.65273302 364.94015867 14.10064224 363.625 16.3125 C360.50145341 21.47836552 357.27873837 25.08280248 352 28 C350.24850835 29.58245275 350.24850835 29.58245275 349 31 C348.34 30.67 347.68 30.34 347 30 C347.48210937 29.52949219 347.96421875 29.05898438 348.4609375 28.57421875 C349.09257812 27.95160156 349.72421875 27.32898438 350.375 26.6875 C351.00148438 26.07261719 351.62796875 25.45773437 352.2734375 24.82421875 C354.18086607 22.91187472 354.18086607 22.91187472 356 20 C356.66 20 357.32 20 358 20 C358.226875 19.44441406 358.45375 18.88882812 358.6875 18.31640625 C360.37697184 15.33468957 362.53502125 13.3129083 365 10.9375 C367.68210288 8.34506045 369.92789175 6.10816238 372 3 C372.66 3 373.32 3 374 3 C374 2.34 374 1.68 374 1 C250.58 1 127.16 1 0 1 C0 0.67 0 0.34 0 0 Z " fill="#DADEF4" transform="translate(47,261)"/>
<path d="M0 0 C6.32624722 1.29400511 10.54734947 7.34047058 14.5625 12.0546875 C17.4060824 15.31465161 20.35515831 18.46834601 23.3125 21.625 C24.20328247 22.57632813 24.20328247 22.57632813 25.11206055 23.546875 C26.3496163 24.86781158 27.58749723 26.18844357 28.82568359 27.50878906 C32.09761523 31.00073132 35.36083895 34.50079585 38.625 38 C39.809857 39.2695675 40.99474915 40.53910218 42.1796875 41.80859375 C43.45199219 43.17177734 43.45199219 43.17177734 44.75 44.5625 C43.265 45.0575 43.265 45.0575 41.75 45.5625 C41.75 44.9025 41.75 44.2425 41.75 43.5625 C40.265 43.0675 40.265 43.0675 38.75 42.5625 C34.0470941 38.26270032 29.9484135 33.34692533 25.75 28.5625 C24.84701172 27.53382813 24.84701172 27.53382813 23.92578125 26.484375 C21.58815291 23.81580153 19.25345025 21.14498653 16.93359375 18.4609375 C13.66257243 14.68831248 10.37879885 11.00030943 6.75 7.5625 C5.5125 6.386875 5.5125 6.386875 4.25 5.1875 C1.87988868 3.33582887 1.87988868 3.33582887 -0.875 3.5 C-3.40986258 4.34928039 -3.40986258 4.34928039 -4.43359375 6.69140625 C-6.93946951 10.65230665 -10.2163793 13.44747701 -13.6875 16.5625 C-20.95420366 23.05499229 -20.95420366 23.05499229 -26.58984375 30.953125 C-28.88019961 34.5530255 -31.77428064 37.33778578 -34.8125 40.3125 C-35.40224609 40.90160156 -35.99199219 41.49070313 -36.59960938 42.09765625 C-42.06505897 47.50714561 -42.06505897 47.50714561 -45.68017578 47.67602539 C-47.17266846 47.66817017 -47.17266846 47.66817017 -48.6953125 47.66015625 C-50.30986328 47.65532227 -50.30986328 47.65532227 -51.95703125 47.65039062 C-53.08496094 47.64201172 -54.21289062 47.63363281 -55.375 47.625 C-56.51066406 47.62048828 -57.64632812 47.61597656 -58.81640625 47.61132812 C-61.62765638 47.59951615 -64.4388023 47.58304507 -67.25 47.5625 C-67.89208984 45.73291016 -67.89208984 45.73291016 -68.25 43.5625 C-66.51179938 41.47785389 -64.86287528 39.75083013 -62.875 37.9375 C-59.09618336 34.61882859 -59.09618336 34.61882859 -56.25 30.5625 C-55.59 30.8925 -54.93 31.2225 -54.25 31.5625 C-54.70890625 32.07039063 -55.1678125 32.57828125 -55.640625 33.1015625 C-56.25421875 33.78992188 -56.8678125 34.47828125 -57.5 35.1875 C-58.10328125 35.86039063 -58.7065625 36.53328125 -59.328125 37.2265625 C-61.51361261 39.8829072 -63.38134324 42.67683093 -65.25 45.5625 C-54.01217898 46.89664313 -54.01217898 46.89664313 -43.60546875 43.88671875 C-41.9615041 41.85681206 -40.61643712 39.78406228 -39.25 37.5625 C-36.5 35.75 -36.5 35.75 -34.25 34.5625 C-33.693125 34.005625 -33.13625 33.44875 -32.5625 32.875 C-32.129375 32.441875 -31.69625 32.00875 -31.25 31.5625 C-30.59 31.5625 -29.93 31.5625 -29.25 31.5625 C-29.25 30.5725 -29.25 29.5825 -29.25 28.5625 C-27.109375 26.23046875 -27.109375 26.23046875 -24.25 23.5625 C-23.29343861 22.62458567 -22.34033497 21.68313254 -21.390625 20.73828125 C-20.67712891 20.03155273 -20.67712891 20.03155273 -19.94921875 19.31054688 C-19.47097656 18.83681641 -18.99273437 18.36308594 -18.5 17.875 C-18.00628906 17.38966797 -17.51257813 16.90433594 -17.00390625 16.40429688 C-14.28384724 13.74409783 -14.28384724 13.74409783 -12.25 10.5625 C-11.321875 10.1603125 -11.321875 10.1603125 -10.375 9.75 C-7.59064295 8.19403577 -6.7932504 6.31351159 -5.25 3.5625 C-3.55704971 1.33088371 -2.72808422 0.68202106 0 0 Z " fill="#7484EE" transform="translate(256.25,166.4375)"/>
<path d="M0 0 C7.26 0 14.52 0 22 0 C23 4 23 4 21.5234375 6.47265625 C20.81445312 7.32730469 20.10546875 8.18195313 19.375 9.0625 C18.68148437 9.91972656 17.98796875 10.77695312 17.2734375 11.66015625 C15 14 15 14 12.73046875 15.34765625 C8.64466811 17.82017939 5.39010172 21.09645244 1.9375 24.375 C1.23044922 25.035 0.52339844 25.695 -0.20507812 26.375 C-3.7652296 29.73123669 -7.07102215 33.05919343 -10 37 C-10.66 36.67 -11.32 36.34 -12 36 C-7.96938454 31.28332233 -3.85059296 26.75281384 0.6171875 22.4453125 C2.10854485 21.02890223 2.10854485 21.02890223 3 19 C3.721875 18.608125 4.44375 18.21625 5.1875 17.8125 C8.39956972 15.74249951 10.32838417 13.40736265 12.66796875 10.42578125 C13.10753906 9.95527344 13.54710937 9.48476563 14 9 C14.66 9 15.32 9 16 9 C16.28875 8.401875 16.5775 7.80375 16.875 7.1875 C18 5 18 5 20 2 C6.69110039 1.14286179 6.69110039 1.14286179 -4.69262695 7.11816406 C-6.74085007 9.18151347 -8.70023226 11.30091606 -10.60400391 13.49804688 C-12.02949281 15.03173133 -13.52312787 16.2857139 -15.16796875 17.578125 C-17.94631637 19.95409124 -19.22679414 21.86241074 -21 25 C-22.44863002 26.65070341 -23.95092056 28.25567516 -25.5 29.8125 C-26.2734375 30.60269531 -27.046875 31.39289063 -27.84375 32.20703125 C-30 34 -30 34 -33 34 C-33 33.34 -33 32.68 -33 32 C-32.34 32 -31.68 32 -31 32 C-30.67 31.01 -30.34 30.02 -30 29 C-29.34 29 -28.68 29 -28 29 C-27.67515625 28.18208984 -27.67515625 28.18208984 -27.34375 27.34765625 C-25.54862264 24.21140176 -23.0867754 21.91398652 -20.5 19.4375 C-17.71628244 16.75088887 -15.16106778 14.24160167 -13 11 C-12.2575 10.566875 -11.515 10.13375 -10.75 9.6875 C-8.30822247 8.18913652 -6.76889971 6.85021706 -4.8125 4.8125 C-3.884375 3.884375 -2.95625 2.95625 -2 2 C-1.34 2 -0.68 2 0 2 C0 1.34 0 0.68 0 0 Z " fill="#5064EB" transform="translate(304,287)"/>
<path d="M0 0 C0.66 0.33 1.32 0.66 2 1 C0.03125 3.1875 0.03125 3.1875 -1.9375 5.375 C-2.75347656 6.28378906 -3.56945312 7.19257813 -4.41015625 8.12890625 C-6.0968132 9.99872956 -7.79174558 11.86113174 -9.49609375 13.71484375 C-10.28113281 14.57207031 -11.06617188 15.42929688 -11.875 16.3125 C-12.59429687 17.09238281 -13.31359375 17.87226563 -14.0546875 18.67578125 C-16.04381876 20.91347523 -16.04381876 20.91347523 -17.3671875 23.390625 C-19.55725286 26.89053806 -22.3082313 29.56220958 -25.25 32.4375 C-25.82975586 33.01153564 -26.40951172 33.58557129 -27.00683594 34.17700195 C-30.86383338 37.96863572 -34.86049312 41.51905103 -39 45 C-39.33 45.66 -39.66 46.32 -40 47 C-40.66 47 -41.32 47 -42 47 C-42.32677734 48.07314453 -42.32677734 48.07314453 -42.66015625 49.16796875 C-44.34592665 52.73118607 -46.5094016 54.6877106 -49.4375 57.3125 C-50.40558594 58.19550781 -51.37367187 59.07851562 -52.37109375 59.98828125 C-55 62 -55 62 -58 62 C-58 61.34 -58 60.68 -58 60 C-57.34 60 -56.68 60 -56 60 C-55.67 59.01 -55.34 58.02 -55 57 C-54.34 57 -53.68 57 -53 57 C-52.7525 56.42378906 -52.505 55.84757812 -52.25 55.25390625 C-50.81305755 52.6629194 -49.14041667 50.97955193 -47 48.9375 C-44.62557202 46.66346144 -42.83652048 44.75478071 -41 42 C-40.34 42 -39.68 42 -39 42 C-38.78214844 41.4534375 -38.56429687 40.906875 -38.33984375 40.34375 C-36.56100793 37.23208383 -34.12853193 34.95562899 -31.5625 32.5 C-27.70026317 28.80360056 -27.70026317 28.80360056 -24.33984375 24.65625 C-23.89769531 24.1096875 -23.45554688 23.563125 -23 23 C-22.01 23 -21.02 23 -20 23 C-20 22.34 -20 21.68 -20 21 C-18.37174465 19.27093334 -16.71881885 17.6350408 -15 16 C-13.91048406 14.92678521 -12.82333577 13.85116272 -11.73828125 12.7734375 C-10.89620117 11.938125 -10.89620117 11.938125 -10.03710938 11.0859375 C-9.46798828 10.52132812 -8.89886719 9.95671875 -8.3125 9.375 C-7.73177734 8.80265625 -7.15105469 8.2303125 -6.55273438 7.640625 C-5.71645508 6.80917969 -5.71645508 6.80917969 -4.86328125 5.9609375 C-4.36094971 5.46384277 -3.85861816 4.96674805 -3.34106445 4.45458984 C-1.77558067 2.83255322 -1.77558067 2.83255322 0 0 Z " fill="#6C7DED" transform="translate(154,147)"/>
<path d="M0 0 C8.44972137 -0.16278365 16.89877885 -0.28686471 25.34968472 -0.3626852 C29.27462406 -0.39909123 33.19848434 -0.44840239 37.12280273 -0.52807617 C40.91600575 -0.60459876 44.70817657 -0.6460851 48.50209236 -0.6641407 C49.94339293 -0.67699318 51.3846422 -0.70209173 52.82549858 -0.7401104 C60.97854507 -0.94652012 66.93684717 -0.62136097 73.2157135 5.10215759 C75.64190463 7.68275685 78.02409668 10.27947892 80.29296875 13 C83.01002201 16.18336675 86.00175463 19.0837735 89 22 C83.77665391 22 80.58690615 17.50944804 77 14 C75.11529989 11.96004681 73.29367834 9.88836575 71.5078125 7.76171875 C71.01023437 7.18035156 70.51265625 6.59898437 70 6 C69.60588425 5.47758224 69.21176849 4.95516449 68.80570984 4.41691589 C66.12743374 2.31530915 63.97331587 2.59974587 60.60083008 2.56762695 C59.95665634 2.5574353 59.3124826 2.54724365 58.64878845 2.53674316 C56.52228131 2.50657961 54.39622434 2.49734269 52.26953125 2.48828125 C50.79406737 2.47143694 49.31861787 2.45328703 47.84318542 2.43388367 C43.96180716 2.38635007 40.08048715 2.35656274 36.19891357 2.33044434 C32.23730969 2.30065556 28.27590663 2.25411952 24.31445312 2.20898438 C16.54306832 2.12291317 8.77166898 2.05558519 1 2 C2.11499364 3.28202613 3.23109251 4.56309109 4.34765625 5.84375 C4.96906494 6.55724609 5.59047363 7.27074219 6.23071289 8.00585938 C8.07778307 10.08766829 9.99227634 12.07258528 12 14 C11.67 14.66 11.34 15.32 11 16 C1.4700537 7.97356464 1.4700537 7.97356464 -1 4 C-0.58984375 1.85546875 -0.58984375 1.85546875 0 0 Z " fill="#A9B3F1" transform="translate(139,307)"/>
<path d="M0 0 C15.45549087 -0.28104367 30.91078925 -0.49228025 46.3682375 -0.62174606 C53.5465751 -0.68347471 60.72332002 -0.76753328 67.90063477 -0.90527344 C74.16079181 -1.02535451 80.41979514 -1.10240659 86.68107194 -1.12906194 C89.99350688 -1.14463338 93.30189674 -1.18728043 96.61345863 -1.26876068 C118.4314113 -1.78406178 118.4314113 -1.78406178 124.13339233 2.75134277 C126.96966191 5.54480472 129.06080496 8.53404782 131 12 C130.01 12.33 129.02 12.66 128 13 C124.74483572 9.83525695 121.67991207 6.67247209 119 3 C119 2.34 119 1.68 119 1 C80.39 1.33 41.78 1.66 2 2 C2.66 3.32 3.32 4.64 4 6 C1.525 5.01 1.525 5.01 -1 4 C-0.67 2.68 -0.34 1.36 0 0 Z " fill="#6476ED" transform="translate(94,289)"/>
<path d="M0 0 C4.6246949 3.21334387 8.91067256 6.68703596 13 10.5625 C13.763125 11.28566406 14.52625 12.00882813 15.3125 12.75390625 C17 15 17 15 17 20 C-21.61 20 -60.22 20 -100 20 C-100 19.67 -100 19.34 -100 19 C-61.72 19 -23.44 19 16 19 C9.2125864 10.42492245 9.2125864 10.42492245 1.46875 3.375 C0.9840625 2.92125 0.499375 2.4675 0 2 C0 1.34 0 0.68 0 0 Z " fill="#AEB7F2" transform="translate(401,193)"/>
<path d="M0 0 C0.66 0.33 1.32 0.66 2 1 C1.52949219 1.51949219 1.05898437 2.03898437 0.57421875 2.57421875 C-2.70083398 6.24254903 -5.51709283 9.74358772 -8 14 C-10.0625 16.3125 -10.0625 16.3125 -12 18 C-12.66 18 -13.32 18 -14 18 C-14.0928125 18.8971875 -14.0928125 18.8971875 -14.1875 19.8125 C-15 22 -15 22 -17.07421875 23.20703125 C-21.04510727 25.6404596 -24.24004142 28.69499008 -27.625 31.875 C-28.29273438 32.48730469 -28.96046875 33.09960938 -29.6484375 33.73046875 C-33.46496384 37.2930347 -33.46496384 37.2930347 -36.49609375 41.5078125 C-38.80936535 45.34123402 -42.1244562 48.02683701 -45.4375 51 C-52.62449193 57.24467584 -52.62449193 57.24467584 -58 65 C-58.99 65 -59.98 65 -61 65 C-61 63 -61 63 -58.859375 60.73046875 C-57.91578125 59.82941406 -56.9721875 58.92835938 -56 58 C-55.04474606 57.06075408 -54.09163148 56.11932758 -53.140625 55.17578125 C-52.42712891 54.46905273 -52.42712891 54.46905273 -51.69921875 53.74804688 C-50.98185547 53.03745117 -50.98185547 53.03745117 -50.25 52.3125 C-49.75628906 51.82716797 -49.26257813 51.34183594 -48.75390625 50.84179688 C-46.03384724 48.18159783 -46.03384724 48.18159783 -44 45 C-43.38125 44.731875 -42.7625 44.46375 -42.125 44.1875 C-39.84701556 43.14925543 -39.84701556 43.14925543 -38.75 40.875 C-35.22770279 35.08836888 -29.85624109 30.69336853 -24.75 26.3125 C-21.7782571 23.75784382 -19.38359944 21.1233372 -17 18 C-15.34749287 16.31929309 -13.67871729 14.65452828 -12 13 C-10.26958361 11.29293256 -8.54040649 9.58460794 -6.8125 7.875 C-5.95269531 7.02679688 -5.09289062 6.17859375 -4.20703125 5.3046875 C-1.87938579 3.00850005 -1.87938579 3.00850005 0 0 Z " fill="#8C99EF" transform="translate(225,75)"/>
<path d="M0 0 C3.7929149 1.30157908 6.15280629 2.78376905 8.9609375 5.6328125 C9.68023437 6.35726563 10.39953125 7.08171875 11.140625 7.828125 C11.87796875 8.58609375 12.6153125 9.3440625 13.375 10.125 C14.10460937 10.85976563 14.83421875 11.59453125 15.5859375 12.3515625 C19.71597486 16.5406004 23.64519005 20.82167094 27.38134766 25.36669922 C29.13331431 27.13452077 30.7578276 27.9601311 33 29 C34.67578125 30.69921875 34.67578125 30.69921875 36.3125 32.6875 C38.68535379 35.5154917 41.1171819 38.10375453 43.8125 40.625 C46.74567443 43.48583156 48.10535767 45.92440715 49 50 C43.32409782 45.31089807 38.43268123 40.25982298 33.54296875 34.77148438 C32.99769531 34.17013672 32.45242187 33.56878906 31.890625 32.94921875 C31.40625977 32.40612061 30.92189453 31.86302246 30.42285156 31.3034668 C28.91647872 29.74568391 28.91647872 29.74568391 26 29 C24.45703125 27.46875 24.45703125 27.46875 22.8125 25.5 C22.20277344 24.78199219 21.59304687 24.06398438 20.96484375 23.32421875 C20.31644531 22.55722656 19.66804688 21.79023438 19 21 C14.79771199 16.19168943 10.57939396 11.45562656 6 7 C1.11111111 2.22222222 1.11111111 2.22222222 0 0 Z " fill="#8B98EF" transform="translate(205,404)"/>
<path d="M0 0 C6.56022401 3.66600754 11.26474377 8.17073661 16.08203125 13.828125 C18.84208334 16.95356077 21.82445635 19.83594519 24.796875 22.7578125 C27.46071151 25.46888016 29.89698868 28.32812247 32.296875 31.2734375 C33.94863543 33.10795603 33.94863543 33.10795603 36.24609375 34.2578125 C40.21520835 36.76877011 43.13769411 40.06689374 46.3125 43.5 C46.95767578 44.17675781 47.60285156 44.85351562 48.26757812 45.55078125 C49.18120117 46.53111328 49.18120117 46.53111328 50.11328125 47.53125 C50.66798096 48.12486328 51.22268066 48.71847656 51.79418945 49.33007812 C53 51 53 51 53 54 C50.4156254 51.58444487 47.83268701 49.1673593 45.25 46.75 C44.52039063 46.06808594 43.79078125 45.38617188 43.0390625 44.68359375 C42.33007812 44.01972656 41.62109375 43.35585937 40.890625 42.671875 C40.24125977 42.0644043 39.59189453 41.45693359 38.92285156 40.83105469 C37.5533078 39.5268929 36.2129507 38.19178757 34.89355469 36.83691406 C33.10458697 34.90988629 33.10458697 34.90988629 30.8125 33.9375 C29 33 29 33 28 30 C26.33695766 28.391031 26.33695766 28.391031 24.3125 26.8125 C21.55742552 24.48016182 19.31451784 22.27061511 17.25 19.3125 C14.44078205 15.34838134 11.18019073 11.98406962 7.75 8.5625 C7.21793945 8.02987549 6.68587891 7.49725098 6.13769531 6.94848633 C3.32877979 4.12823919 3.32877979 4.12823919 0 2 C0 1.34 0 0.68 0 0 Z " fill="#8795EF" transform="translate(310,100)"/>
<path d="M0 0 C0 3 0 3 -2.01171875 5.3046875 C-2.89472656 6.15289062 -3.77773438 7.00109375 -4.6875 7.875 C-5.55761719 8.71804688 -6.42773438 9.56109375 -7.32421875 10.4296875 C-8.20722656 11.27789062 -9.09023438 12.12609375 -10 13 C-10.85464844 13.86238281 -11.70929688 14.72476562 -12.58984375 15.61328125 C-14.62154684 17.6252271 -16.68382923 19.48046303 -18.875 21.3125 C-26.29986945 27.67864305 -26.29986945 27.67864305 -31 36 C-33.60546875 36.4296875 -33.60546875 36.4296875 -37 36 C-39.48552721 34.02735936 -41.35108315 31.60583293 -43.3125 29.125 C-44.452523 27.74819923 -45.5931505 26.37189877 -46.734375 24.99609375 C-47.28802734 24.31659668 -47.84167969 23.63709961 -48.41210938 22.93701172 C-50.57327532 20.30068168 -52.80042204 17.73795544 -55.0625 15.1875 C-56.06990234 14.03314453 -56.06990234 14.03314453 -57.09765625 12.85546875 C-58.97854503 11.0209263 -60.59292505 10.01322309 -63 9 C-62.67 8.34 -62.34 7.68 -62 7 C-56.82802878 9.58102211 -53.40545988 13.55071382 -49.5625 17.75 C-48.59860352 18.78640625 -48.59860352 18.78640625 -47.61523438 19.84375 C-44.06962726 23.6737256 -40.65972665 27.55393557 -37.43725586 31.66113281 C-35.69776523 33.28154501 -34.31570359 33.60749737 -32 34 C-31.72744385 33.40525879 -31.4548877 32.81051758 -31.17407227 32.19775391 C-30.03199951 30.05990011 -28.87707268 28.58388243 -27.21484375 26.8359375 C-26.41916992 25.98902344 -26.41916992 25.98902344 -25.60742188 25.125 C-25.05634766 24.5475 -24.50527344 23.97 -23.9375 23.375 C-20.03429271 19.50673691 -20.03429271 19.50673691 -17 15 C-16.28457031 14.59136719 -15.56914062 14.18273437 -14.83203125 13.76171875 C-11.26453568 11.54249047 -8.59869181 8.81566142 -5.6875 5.8125 C-5.13771484 5.25369141 -4.58792969 4.69488281 -4.02148438 4.11914062 C-2.67636304 2.75062588 -1.33753357 1.37593167 0 0 Z " fill="#7C8BEE" transform="translate(291,324)"/>
<path d="M0 0 C0.66 0.33 1.32 0.66 2 1 C1.31164062 1.76183594 1.31164062 1.76183594 0.609375 2.5390625 C-0.00421875 3.22742188 -0.6178125 3.91578125 -1.25 4.625 C-1.85328125 5.29789063 -2.4565625 5.97078125 -3.078125 6.6640625 C-5.26361261 9.3204072 -7.13134324 12.11433093 -9 15 C2.23782102 16.33414313 2.23782102 16.33414313 12.64453125 13.32421875 C14.28864308 11.29413033 15.63781522 9.22460696 17 7 C19.625 5.25 19.625 5.25 22 4 C23.299375 2.88625 23.299375 2.88625 24.625 1.75 C25.40875 1.1725 26.1925 0.595 27 0 C27.99 0.33 28.98 0.66 30 1 C27.5457323 3.48322005 25.08591435 5.96086813 22.625 8.4375 C21.92632812 9.14455078 21.22765625 9.85160156 20.5078125 10.58007812 C19.8375 11.25361328 19.1671875 11.92714844 18.4765625 12.62109375 C17.85861816 13.2442749 17.24067383 13.86745605 16.60400391 14.50952148 C13.64275412 17.2611851 11.49123657 17.11837493 7.5546875 17.09765625 C5.94013672 17.09282227 5.94013672 17.09282227 4.29296875 17.08789062 C3.16503906 17.07951172 2.03710938 17.07113281 0.875 17.0625 C-0.26066406 17.05798828 -1.39632812 17.05347656 -2.56640625 17.04882812 C-5.37765638 17.03701615 -8.1888023 17.02054507 -11 17 C-11.64208984 15.17041016 -11.64208984 15.17041016 -12 13 C-10.26179938 10.91535389 -8.61287528 9.18833013 -6.625 7.375 C-2.84618336 4.05632859 -2.84618336 4.05632859 0 0 Z " fill="#E0E3F4" transform="translate(200,197)"/>
<path d="M0 0 C0.66 0.33 1.32 0.66 2 1 C1.18595703 1.77923828 1.18595703 1.77923828 0.35546875 2.57421875 C-3.35464118 6.19074032 -6.48027648 9.4405003 -9 14 C-10.57279578 16.12581107 -12.21704386 18.03417656 -14 20 C-14.66 20 -15.32 20 -16 20 C-16.20367187 20.52980469 -16.40734375 21.05960937 -16.6171875 21.60546875 C-18.60079336 25.04035686 -21.30162213 27.55241229 -24.125 30.3125 C-24.70741455 30.88919434 -25.2898291 31.46588867 -25.88989258 32.06005859 C-29.63461136 35.74201093 -33.4619395 39.28545749 -37.51171875 42.6328125 C-39.25570472 44.1262797 -39.25570472 44.1262797 -41 47 C-41.66 46.67 -42.32 46.34 -43 46 C-38.56019243 40.76074155 -33.89203871 35.8571211 -29.00390625 31.03515625 C-26.81835893 28.81552632 -24.91127443 26.45735284 -23 24 C-21.33333333 22.33333333 -19.66666667 20.66666667 -18 19 C-17.443125 18.236875 -16.88625 17.47375 -16.3125 16.6875 C-15.879375 16.130625 -15.44625 15.57375 -15 15 C-14.34 15 -13.68 15 -13 15 C-12.78601563 14.45859375 -12.57203125 13.9171875 -12.3515625 13.359375 C-10.51922057 10.1607203 -8.00203394 7.79035516 -5.375 5.25 C-4.859375 4.74339844 -4.34375 4.23679687 -3.8125 3.71484375 C-2.54616661 2.47196098 -1.2736856 1.23534724 0 0 Z " fill="#CAD0F3" transform="translate(325,385)"/>
<path d="M0 0 C1.1055189 0.93590504 2.20935453 1.87379858 3.3125 2.8125 C3.92738281 3.33457031 4.54226562 3.85664063 5.17578125 4.39453125 C7 6 7 6 8.41796875 7.51171875 C10.01939927 9.13788891 10.01939927 9.13788891 12.40625 10.3515625 C15.48925476 12.31094203 17.26108964 14.49752718 19.5 17.375 C22.47644806 21.17940369 25.53756766 24.63142878 29 28 C29.98066246 28.97766858 30.95976847 29.95690029 31.9375 30.9375 C32.44023437 31.44023437 32.94296875 31.94296875 33.4609375 32.4609375 C37.640625 36.640625 41.8203125 40.8203125 46 45 C45.505 45.99 45.505 45.99 45 47 C40.30927117 43.97083724 36.61444983 40.73037508 33.1875 36.3125 C28.56343438 30.43251532 23.40436147 25.16917311 18.125 19.875 C16.85692505 18.59363159 16.85692505 18.59363159 15.56323242 17.28637695 C14.76119385 16.48804443 13.95915527 15.68971191 13.1328125 14.8671875 C12.40980957 14.14644043 11.68680664 13.42569336 10.94189453 12.68310547 C9.00804889 10.79024565 9.00804889 10.79024565 6 10 C5.67 9.01 5.34 8.02 5 7 C4.154375 6.154375 3.30875 5.30875 2.4375 4.4375 C1.633125 3.633125 0.82875 2.82875 0 2 C0 1.34 0 0.68 0 0 Z " fill="#7C8BEE" transform="translate(170,343)"/>
<path d="M0 0 C0.99 0 1.98 0 3 0 C3 0.66 3 1.32 3 2 C2.34 2 1.68 2 1 2 C0.67 2.99 0.34 3.98 0 5 C-1.70703125 6.61328125 -1.70703125 6.61328125 -3.8125 8.3125 C-6.39541562 10.4931208 -8.10503194 12.1575479 -10 15 C-12.31584516 18.47376773 -15.01312246 20.68094571 -18.1875 23.34765625 C-20.35932005 25.32756979 -21.54009933 27.46104231 -23 30 C-24.77202967 31.8784333 -26.60587982 33.66930759 -28.4765625 35.44921875 C-30.09913693 36.94179261 -30.09913693 36.94179261 -31 39 C-32.65532623 40.01866229 -34.32260138 41.01810813 -36 42 C-36.66 42.66 -37.32 43.32 -38 44 C-40.125 43.625 -40.125 43.625 -42 43 C-41.278125 42.62875 -40.55625 42.2575 -39.8125 41.875 C-37.35263061 40.23508707 -36.0996522 39.06239697 -34.3125 36.8125 C-33.549375 35.884375 -32.78625 34.95625 -32 34 C-31.34 34 -30.68 34 -30 34 C-29.67708984 33.18402344 -29.67708984 33.18402344 -29.34765625 32.3515625 C-27.53620359 29.19070887 -25.04503977 26.87236204 -22.4375 24.375 C-18.77285984 21.03597098 -18.77285984 21.03597098 -16 17 C-15.34 17 -14.68 17 -14 17 C-13.76410156 16.43539063 -13.52820313 15.87078125 -13.28515625 15.2890625 C-11.70765058 12.47928037 -9.75948714 10.60380949 -7.4375 8.375 C-4.30957946 5.48929319 -4.30957946 5.48929319 -2 2 C-1.34 2 -0.68 2 0 2 C0 1.34 0 0.68 0 0 Z " fill="#8B98EF" transform="translate(298,386)"/>
<path d="M0 0 C0.99 0.33 1.98 0.66 3 1 C1.12353479 3.47961474 -0.53650143 5.66291013 -3.0625 7.5 C-5.12941841 8.90248305 -5.12941841 8.90248305 -6.25 11.1875 C-9.2742564 16.04791207 -13.483716 21.16123867 -19 23 C-20.32126899 24.66224163 -21.39795774 26.41170114 -22.5234375 28.2109375 C-24.38455309 30.46593999 -26.49133497 31.50966714 -29 33 C-30.64760066 34.51663081 -32.25248462 36.08091699 -33.8125 37.6875 C-34.99779297 38.89986328 -34.99779297 38.89986328 -36.20703125 40.13671875 C-37.09455078 41.05904297 -37.09455078 41.05904297 -38 42 C-38 39 -38 39 -35.6640625 36.40625 C-34.65840531 35.42985797 -33.64502439 34.46137299 -32.625 33.5 C-29.79683995 30.79386716 -27.18690277 28.28035415 -25 25 C-24.34 25 -23.68 25 -23 25 C-22.690625 24.1028125 -22.690625 24.1028125 -22.375 23.1875 C-21 21 -21 21 -18.25 19.75 C-14.4627309 17.71070125 -12.94640001 15.59488422 -10.515625 12.140625 C-9.00830899 10.01173538 -7.42441679 7.99954627 -5.75 6 C-5.27046875 5.4225 -4.7909375 4.845 -4.296875 4.25 C-3 3 -3 3 -1 3 C-0.67 2.01 -0.34 1.02 0 0 Z " fill="#8694EF" transform="translate(198,127)"/>
<path d="M0 0 C2.475 0.495 2.475 0.495 5 1 C5 1.66 5 2.32 5 3 C5.598125 3.061875 6.19625 3.12375 6.8125 3.1875 C9 4 9 4 10.23828125 6.11328125 C12.52404735 9.85869399 15.36441731 12.82668311 18.375 16 C18.93960938 16.60328125 19.50421875 17.2065625 20.0859375 17.828125 C21.71406711 19.56178153 23.35609105 21.28132152 25 23 C25.7108374 23.76654907 25.7108374 23.76654907 26.43603516 24.54858398 C27.57423997 25.74833053 28.78198232 26.88136918 30 28 C32.65904469 28.25153259 32.65904469 28.25153259 35 27 C36.82337753 25.0431712 36.82337753 25.0431712 38 23 C38.66 23.33 39.32 23.66 40 24 C39.12323882 25.1810666 38.22268773 26.34449718 37.3125 27.5 C36.81363281 28.1496875 36.31476563 28.799375 35.80078125 29.46875 C34 31 34 31 31.546875 31.44921875 C28.27471596 30.87207413 27.18331769 29.72798185 24.9375 27.3125 C24.24527344 26.57773437 23.55304688 25.84296875 22.83984375 25.0859375 C21.51042032 23.5786931 20.23654937 22.02182888 19 20.4375 C17.17336544 18.21128913 15.37364605 16.54342514 13.1875 14.6875 C8.11255536 10.35245383 3.70450804 5.55676205 0 0 Z " fill="#7F8EEE" transform="translate(225,303)"/>
<path d="M0 0 C3.00828582 1.31773204 4.73996372 2.60401219 6.75 5.1875 C9.60270343 8.66287474 12.75124646 11.52308033 16.17578125 14.42578125 C18 16 18 16 20.3125 18.375 C22.00922741 20.24210971 22.00922741 20.24210971 25 21 C25 21.66 25 22.32 25 23 C25.5775 23.020625 26.155 23.04125 26.75 23.0625 C29.78490558 24.32704399 30.40264933 26.33164491 31.85546875 29.15625 C33.09299928 31.14981454 34.34752538 32.30963801 36.1875 33.75 C39 36 39 36 40 39 C36.97022571 37.64768813 34.91527387 36.14519457 32.609375 33.76953125 C31.67484497 32.81759888 31.67484497 32.81759888 30.72143555 31.84643555 C30.07086182 31.17523682 29.42028809 30.50403809 28.75 29.8125 C24.26688281 25.25211544 19.78446168 20.81584248 14.90625 16.67578125 C9.23858069 11.69334245 3.66062774 6.65784075 0 0 Z " fill="#9AA5F0" transform="translate(216,390)"/>
<path d="M0 0 C3.59442592 0.96435817 4.84769475 3.14372719 7.08203125 6.015625 C8.96864827 8.1461582 10.93659738 8.69391522 13.5625 9.6875 C14.59685556 11.33306566 15.59013513 13.0045608 16.5625 14.6875 C18.20230466 16.44749977 19.92207067 18.10630686 21.6484375 19.78125 C29.53810976 27.63871951 29.53810976 27.63871951 31.5625 31.6875 C25.47674524 29.03091218 21.19079481 23.68216114 17.0625 18.625 C14.42186434 15.5222531 11.58885501 12.99479238 8.48828125 10.3671875 C6.80270105 8.89700599 5.27566064 7.38167331 3.75 5.75 C1.69978919 3.34449357 1.69978919 3.34449357 -1.4375 3.6875 C-1.9325 4.1825 -2.4275 4.6775 -2.9375 5.1875 C-3.4325 5.6825 -3.9275 6.1775 -4.4375 6.6875 C-5.4275 6.6875 -6.4175 6.6875 -7.4375 6.6875 C-7.4375 6.0275 -7.4375 5.3675 -7.4375 4.6875 C-5.06401275 2.38182667 -3.20399262 0.90369023 0 0 Z " fill="#7A89EE" transform="translate(256.4375,71.3125)"/>
<path d="M0 0 C5.04494465 1.45065258 7.53895126 4.36838414 10.875 8.1875 C11.93768647 9.37339649 13.00148063 10.55830134 14.06640625 11.7421875 C14.57316895 12.30905273 15.07993164 12.87591797 15.60205078 13.45996094 C17.27939666 15.30779499 19.02589314 17.07045703 20.8125 18.8125 C25.93875477 23.85123334 30.57695231 29.33849896 35 35 C32 35 32 35 29.61328125 32.79296875 C28.75089844 31.87128906 27.88851563 30.94960937 27 30 C26.20980469 29.23300781 25.41960937 28.46601563 24.60546875 27.67578125 C19.67377115 22.85562447 15.24494685 17.9197217 11.02734375 12.46875 C8.15199301 8.9673595 4.95107906 5.85162836 1.6875 2.71484375 C0 1 0 1 0 0 Z " fill="#7383ED" transform="translate(288,103)"/>
<path d="M0 0 C3.35915158 1.43963639 5.71624938 3.12416589 8 6 C7.67 7.32 7.34 8.64 7 10 C-15.44 10 -37.88 10 -61 10 C-61 9.67 -61 9.34 -61 9 C-39.22 8.67 -17.44 8.34 5 8 C3.35 5.69 1.7 3.38 0 1 C0 0.67 0 0.34 0 0 Z " fill="#A5AFF1" transform="translate(368,184)"/>
<path d="M0 0 C0.99 0.33 1.98 0.66 3 1 C2.44570313 1.47050781 1.89140625 1.94101562 1.3203125 2.42578125 C0.59585938 3.04839844 -0.12859375 3.67101562 -0.875 4.3125 C-1.59429687 4.92738281 -2.31359375 5.54226563 -3.0546875 6.17578125 C-5.19179331 8.0412324 -5.19179331 8.0412324 -7 11 C-7.66 11 -8.32 11 -9 11 C-9.268125 11.598125 -9.53625 12.19625 -9.8125 12.8125 C-11.00572423 15.01054464 -12.24678871 16.24678871 -14 18 C-14.4125 18.7425 -14.825 19.485 -15.25 20.25 C-17.66287342 24.04165823 -20.77222419 26.89935759 -24 30 C-24.98161152 30.9767157 -25.961119 31.95555557 -26.9375 32.9375 C-27.9584375 33.9584375 -27.9584375 33.9584375 -29 35 C-29.99 34.67 -30.98 34.34 -32 34 C-31.0919838 32.86800647 -30.17316174 31.74467637 -29.25 30.625 C-28.48429687 29.68527344 -28.48429687 29.68527344 -27.703125 28.7265625 C-25.91098401 26.90975902 -24.27601946 26.10007607 -22 25 C-21.5875 24.29875 -21.175 23.5975 -20.75 22.875 C-18.63615001 19.40224644 -16.02762329 16.94368148 -13.125 14.12109375 C-10.45238118 11.45338783 -8.00433139 8.62688866 -5.54296875 5.765625 C-3.78203656 3.75058361 -1.93026669 1.85305602 0 0 Z " fill="#9AA5F0" transform="translate(333,351)"/>
<path d="M0 0 C5.3166981 1.77038277 7.98984043 5.03651809 11.6171875 9.18359375 C12.29265625 9.92544922 12.968125 10.66730469 13.6640625 11.43164062 C18.52843785 16.81859445 18.52843785 16.81859445 19.7421875 19.24609375 C16.7421875 19.24609375 16.7421875 19.24609375 15.234375 17.8125 C14.70070313 17.15121094 14.16703125 16.48992188 13.6171875 15.80859375 C10.85384082 12.51609558 8.0077511 9.37327077 4.9921875 6.30859375 C4.25484375 5.55707031 3.5175 4.80554687 2.7578125 4.03125 C0.77335681 2.03856266 0.77335681 2.03856266 -2.2578125 1.24609375 C-2.63873047 2.13167969 -2.63873047 2.13167969 -3.02734375 3.03515625 C-4.39288158 5.4887893 -5.79872934 6.82454281 -7.9453125 8.62109375 C-8.65042969 9.21792969 -9.35554687 9.81476562 -10.08203125 10.4296875 C-10.80003906 11.02910156 -11.51804688 11.62851562 -12.2578125 12.24609375 C-13.59244076 13.39041854 -14.92588394 14.5361278 -16.2578125 15.68359375 C-17.2478125 16.52921875 -18.2378125 17.37484375 -19.2578125 18.24609375 C-17.69384038 14.45038612 -15.30383143 12.08910327 -12.3828125 9.24609375 C-11.51914063 8.40046875 -10.65546875 7.55484375 -9.765625 6.68359375 C-8.93804687 5.87921875 -8.11046875 5.07484375 -7.2578125 4.24609375 C-6.63648438 3.46234375 -6.01515625 2.67859375 -5.375 1.87109375 C-3.2578125 0.24609375 -3.2578125 0.24609375 0 0 Z " fill="#93A0EF" transform="translate(257.2578125,46.75390625)"/>
<path d="M0 0 C0.99 0.33 1.98 0.66 3 1 C2.53851563 1.37769531 2.07703125 1.75539063 1.6015625 2.14453125 C-5.95414278 8.52059085 -12.91487223 15.49164376 -18 24 C-19.88241616 25.93989452 -21.81383083 27.37200168 -24 29 C-24.66 29 -25.32 29 -26 29 C-26.268125 29.598125 -26.53625 30.19625 -26.8125 30.8125 C-27.98493467 32.97224808 -29.19369282 34.35790256 -31 36 C-31.66 35.67 -32.32 35.34 -33 35 C-32.10698344 33.93513145 -31.2104053 32.87324959 -30.3125 31.8125 C-29.81363281 31.22082031 -29.31476563 30.62914062 -28.80078125 30.01953125 C-25.87169003 26.73462851 -22.70387169 23.69368706 -19.5703125 20.60546875 C-15.04335037 16.12912761 -10.67895474 11.59813314 -6.5390625 6.76171875 C-4.46575944 4.38847084 -2.26166261 2.19312738 0 0 Z " fill="#7282ED" transform="translate(361,348)"/>
<path d="M0 0 C1 3 1 3 -0.125 5.5 C-2.18615177 8.24820236 -4.01777436 9.3597759 -7 11 C-8.95322994 12.65273302 -10.05984133 14.10064224 -11.375 16.3125 C-14.49854659 21.47836552 -17.72126163 25.08280248 -23 28 C-24.75149165 29.58245275 -24.75149165 29.58245275 -26 31 C-26.66 30.67 -27.32 30.34 -28 30 C-27.51789063 29.52949219 -27.03578125 29.05898438 -26.5390625 28.57421875 C-25.90742188 27.95160156 -25.27578125 27.32898438 -24.625 26.6875 C-23.68527344 25.76517578 -23.68527344 25.76517578 -22.7265625 24.82421875 C-20.81913393 22.91187472 -20.81913393 22.91187472 -19 20 C-18.34 20 -17.68 20 -17 20 C-16.76925781 19.44054687 -16.53851563 18.88109375 -16.30078125 18.3046875 C-14.6577669 15.39364105 -12.59421597 13.44150923 -10.1875 11.125 C-6.5446477 7.56122554 -3.15576422 3.99730134 0 0 Z " fill="#8794EF" transform="translate(422,261)"/>
<path d="M0 0 C4.27461239 0.48938319 6.32551066 2.95742826 9.25 5.9375 C10.14203125 6.83339844 11.0340625 7.72929687 11.953125 8.65234375 C14 11 14 11 14 13 C14.598125 13.061875 15.19625 13.12375 15.8125 13.1875 C18.88791343 14.32979642 19.45477272 16.17828061 21 19 C22.58245275 20.75149165 22.58245275 20.75149165 24 22 C23.67 22.66 23.34 23.32 23 24 C19.68539307 22.89513102 19.03023894 22.12376914 16.875 19.5 C14.16122262 16.28495164 11.32951216 13.30751594 8.3125 10.375 C5.00142084 7.11477359 2.35699537 3.99664432 0 0 Z " fill="#99A5F0" transform="translate(181,380)"/>
<path d="M0 0 C6.7055065 3.12631458 11.38079576 8.28434061 16.10546875 13.8515625 C18.20712095 16.23487943 20.42417845 18.45751707 22.6875 20.6875 C25.68860621 23.64763548 28.48198781 26.60615748 31 30 C30.67 30.66 30.34 31.32 30 32 C20.274051 23.69642298 20.274051 23.69642298 17.25 19.3125 C13.68884907 14.18944076 9.12356804 9.99826011 4.67285156 5.65942383 C4.07182617 5.07185303 3.47080078 4.48428223 2.8515625 3.87890625 C2.30322754 3.3485376 1.75489258 2.81816895 1.18994141 2.27172852 C0 1 0 1 0 0 Z " fill="#8592EF" transform="translate(99,296)"/>
<path d="M0 0 C0.495 1.485 0.495 1.485 1 3 C-0.4765625 5.375 -0.4765625 5.375 -2.625 8 C-3.31851562 8.86625 -4.01203125 9.7325 -4.7265625 10.625 C-7 13 -7 13 -9.26953125 14.3515625 C-13.35767249 16.81965349 -16.61021312 20.09675141 -20.0625 23.375 C-21.12307617 24.365 -21.12307617 24.365 -22.20507812 25.375 C-25.7652296 28.73123669 -29.07102215 32.05919343 -32 36 C-32.66 35.67 -33.32 35.34 -34 35 C-29.96938454 30.28332233 -25.85059296 25.75281384 -21.3828125 21.4453125 C-19.89145515 20.02890223 -19.89145515 20.02890223 -19 18 C-18.278125 17.608125 -17.55625 17.21625 -16.8125 16.8125 C-13.65685132 14.77885974 -11.82653625 12.51564094 -9.48046875 9.6328125 C-7.59835337 7.55702297 -5.39519327 6.42416897 -3 5 C-1.19203897 2.43389334 -1.19203897 2.43389334 0 0 Z " fill="#8190EE" transform="translate(326,288)"/>
<path d="M0 0 C4.56256748 2.67077121 7.67189927 5.67381784 11.06640625 9.7109375 C13.94882948 13.12326075 16.97686308 16.40117135 19.984375 19.703125 C21.77019535 21.73812959 23.41203295 23.80900749 25 26 C22 26 22 26 20.45703125 24.49609375 C19.91433594 23.81675781 19.37164062 23.13742188 18.8125 22.4375 C15.22480531 18.14440234 11.24586205 14.62147057 7 11 C3.10659972 7.5297954 1.29967826 5.08056046 0 0 Z " fill="#6375EC" transform="translate(364,154)"/>
<path d="M0 0 C0.99 0.33 1.98 0.66 3 1 C-15.38542359 19.61883229 -15.38542359 19.61883229 -24 26 C-22.41060574 22.06785699 -19.83657498 19.66979654 -16.8125 16.75 C-12.84273381 12.87959161 -9.07351302 8.92761674 -5.53515625 4.65625 C-3.80589546 2.79058441 -2.17474741 1.32783012 0 0 Z " fill="#3F55EA" transform="translate(164,140)"/>
<path d="M0 0 C0.99 0.33 1.98 0.66 3 1 C2.401875 1.391875 1.80375 1.78375 1.1875 2.1875 C-1.08843149 3.85682115 -1.08843149 3.85682115 -2.25 6.1875 C-6.24938178 12.61507786 -12.47174789 17.49209976 -18.16796875 22.390625 C-20.56051809 24.49239542 -22.78366974 26.71440942 -25 29 C-24.47428335 24.95105948 -22.46350492 23.18069025 -19.5625 20.4375 C-17.00340357 18.00163453 -14.96681053 15.95021579 -13 13 C-12.360625 12.71125 -11.72125 12.4225 -11.0625 12.125 C-8.29368198 10.61473562 -7.59959456 8.70700618 -6 6 C-4.07978313 3.90207669 -2.05831767 1.96683688 0 0 Z " fill="#8B99EF" transform="translate(71,231)"/>
<path d="M0 0 C2.90221328 1.31270914 4.96712292 2.71898982 7.20703125 4.9765625 C7.79073486 5.56147461 8.37443848 6.14638672 8.97583008 6.74902344 C9.58193115 7.3680957 10.18803223 7.98716797 10.8125 8.625 C11.74582153 9.56907715 11.74582153 9.56907715 12.69799805 10.53222656 C24.03462722 22.06925445 24.03462722 22.06925445 26 26 C25.01 26 24.02 26 23 26 C23 25.34 23 24.68 23 24 C22.01 23.67 21.02 23.34 20 23 C15.29648932 18.69964738 11.20271889 13.78158395 7 9 C6.31679688 8.23300781 5.63359375 7.46601563 4.9296875 6.67578125 C4.29289062 5.95777344 3.65609375 5.23976562 3 4.5 C2.4225 3.8503125 1.845 3.200625 1.25 2.53125 C0 1 0 1 0 0 Z " fill="#7585EE" transform="translate(275,186)"/>
<path d="M0 0 C0 3 0 3 -2.01171875 5.3046875 C-2.89472656 6.15289062 -3.77773438 7.00109375 -4.6875 7.875 C-5.55761719 8.71804688 -6.42773438 9.56109375 -7.32421875 10.4296875 C-8.64873047 11.70199219 -8.64873047 11.70199219 -10 13 C-10.85464844 13.86238281 -11.70929688 14.72476562 -12.58984375 15.61328125 C-14.62154684 17.6252271 -16.68382923 19.48046303 -18.875 21.3125 C-22.46506926 24.40621499 -25.53063501 27.75550915 -28.5546875 31.3984375 C-30 33 -30 33 -32 34 C-30.71278496 31.19118491 -29.34136259 29.07211433 -27.21484375 26.8359375 C-26.41916992 25.98902344 -26.41916992 25.98902344 -25.60742188 25.125 C-25.05634766 24.5475 -24.50527344 23.97 -23.9375 23.375 C-20.03429271 19.50673691 -20.03429271 19.50673691 -17 15 C-16.28457031 14.59136719 -15.56914062 14.18273437 -14.83203125 13.76171875 C-11.26453568 11.54249047 -8.59869181 8.81566142 -5.6875 5.8125 C-5.13771484 5.25369141 -4.58792969 4.69488281 -4.02148438 4.11914062 C-2.67636304 2.75062588 -1.33753357 1.37593167 0 0 Z " fill="#6D7DED" transform="translate(291,324)"/>
<path d="M0 0 C0.66 0.33 1.32 0.66 2 1 C1.52949219 1.51949219 1.05898438 2.03898437 0.57421875 2.57421875 C-0.04839844 3.27160156 -0.67101562 3.96898437 -1.3125 4.6875 C-1.92738281 5.37199219 -2.54226563 6.05648438 -3.17578125 6.76171875 C-5.05779258 8.95481474 -5.05779258 8.95481474 -6.44921875 11.46875 C-8.18707305 14.30534845 -10.15570092 16.45647943 -12.5 18.8125 C-13.2734375 19.60269531 -14.046875 20.39289063 -14.84375 21.20703125 C-17 23 -17 23 -20 23 C-20 22.34 -20 21.68 -20 21 C-19.34 21 -18.68 21 -18 21 C-17.67 20.01 -17.34 19.02 -17 18 C-16.34 18 -15.68 18 -15 18 C-14.67515625 17.18208984 -14.67515625 17.18208984 -14.34375 16.34765625 C-12.54862264 13.21140176 -10.0867754 10.91398652 -7.5 8.4375 C-4.71628244 5.75088887 -2.16106778 3.24160167 0 0 Z " fill="#9EA9F0" transform="translate(291,298)"/>
<path d="M0 0 C6.40045883 3.74661005 10.62627468 8.92812017 15.125 14.75 C16.95536521 17.12784917 16.95536521 17.12784917 19.625 18.9375 C22.47044237 21.40854205 23.09859263 23.39437053 24 27 C18.91981792 22.97818919 15.08503212 18.72785536 11.1328125 13.60546875 C8.23669451 10.06753707 5.00566107 6.95130101 1.6875 3.8125 C0 2 0 2 0 0 Z " fill="#8391EE" transform="translate(274,159)"/>
<path d="M0 0 C6.68651261 2.1731166 12.56154771 9.19811057 16.5 14.8125 C16.5 15.8025 16.5 16.7925 16.5 17.8125 C8.73319393 11.29840458 8.73319393 11.29840458 5.875 7.4375 C3.68331331 4.66692446 3.68331331 4.66692446 0.625 3.5 C-4.22703924 3.98520392 -6.46556767 7.21247821 -9.5 10.8125 C-9.5 7.15237329 -8.80810988 6.66317891 -6.3125 4.125 C-4.14147721 2.08014887 -2.85181707 0.92684055 0 0 Z " fill="#909CEF" transform="translate(256.5,141.1875)"/>
<path d="M0 0 C0.66 0.33 1.32 0.66 2 1 C1.45730469 1.51949219 0.91460937 2.03898437 0.35546875 2.57421875 C-3.35464118 6.19074032 -6.48027648 9.4405003 -9 14 C-11.20914412 17.20052682 -12.96766428 19.67882889 -16.8125 20.875 C-17.534375 20.91625 -18.25625 20.9575 -19 21 C-17.7260411 18.96166576 -16.38938077 16.96147874 -15 15 C-14.34 15 -13.68 15 -13 15 C-12.78601563 14.45859375 -12.57203125 13.9171875 -12.3515625 13.359375 C-10.51922057 10.1607203 -8.00203394 7.79035516 -5.375 5.25 C-4.859375 4.74339844 -4.34375 4.23679687 -3.8125 3.71484375 C-2.54616661 2.47196098 -1.2736856 1.23534724 0 0 Z " fill="#8190EE" transform="translate(325,385)"/>
<path d="M0 0 C3.36389668 0.24917753 4.14041544 1.15841742 6.4375 3.75 C6.99244141 4.48476563 6.99244141 4.48476563 7.55859375 5.234375 C9.54217958 7.66413325 11.76470528 9.80023742 14 12 C14.96574774 12.96393891 15.93057405 13.92880177 16.89453125 14.89453125 C17.61479492 15.61479492 17.61479492 15.61479492 18.34960938 16.34960938 C20.56640625 18.56640625 22.78320312 20.78320312 25 23 C24.67 23.66 24.34 24.32 24 25 C18.5287328 20.24429089 13.3430799 15.47561754 8.671875 9.92578125 C6.35074401 7.25214204 3.83183558 4.80478202 1.28515625 2.34765625 C0 1 0 1 0 0 Z " fill="#7686EE" transform="translate(142,340)"/>
<path d="M0 0 C0.66 0.33 1.32 0.66 2 1 C-1.98801433 6.65502996 -5.996256 11.01321128 -11.578125 15.09375 C-16.098304 18.65156831 -20.01400052 22.86421348 -24 27 C-24 24 -24 24 -21.41015625 21.15234375 C-20.30164198 20.07310597 -19.18539623 19.00176601 -18.0625 17.9375 C-14.0479068 14.34450657 -14.0479068 14.34450657 -11 10 C-10.278125 9.608125 -9.55625 9.21625 -8.8125 8.8125 C-5.12885593 6.43859604 -2.71237643 3.40212163 0 0 Z " fill="#94A0F0" transform="translate(378,306)"/>
<path d="M0 0 C0.66 0.33 1.32 0.66 2 1 C-5.10378555 9.02464664 -12.21702351 16.90870048 -20.5546875 23.67578125 C-22.26185101 25.13411715 -22.26185101 25.13411715 -24 28 C-23.68213271 22.75518974 -20.70015549 19.45456995 -17 16 C-16.21496094 15.53851563 -15.42992188 15.07703125 -14.62109375 14.6015625 C-11.56400733 12.73359613 -9.32250793 10.55177811 -6.8125 8 C-5.95269531 7.13375 -5.09289062 6.2675 -4.20703125 5.375 C-1.89067113 3.00940759 -1.89067113 3.00940759 0 0 Z " fill="#6375EC" transform="translate(113,214)"/>
<path d="M0 0 C0.66 0.33 1.32 0.66 2 1 C1.31164062 1.76183594 1.31164062 1.76183594 0.609375 2.5390625 C-0.00421875 3.22742188 -0.6178125 3.91578125 -1.25 4.625 C-1.85328125 5.29789063 -2.4565625 5.97078125 -3.078125 6.6640625 C-5.24365319 9.29614757 -7.1093441 12.16401615 -9 15 C-2.73 15.33 3.54 15.66 10 16 C10 16.33 10 16.66 10 17 C3.07 17 -3.86 17 -11 17 C-11.33 15.68 -11.66 14.36 -12 13 C-10.26179938 10.91535389 -8.61287528 9.18833013 -6.625 7.375 C-2.84618336 4.05632859 -2.84618336 4.05632859 0 0 Z " fill="#7E8CEE" transform="translate(200,197)"/>
<path d="M0 0 C0.66 0.33 1.32 0.66 2 1 C-14.61834498 19.86623705 -14.61834498 19.86623705 -25 27 C-22.9792814 22.80723146 -20.90530297 19.08165637 -16.75 16.72265625 C-13.28579573 14.55260784 -10.65748124 11.91179785 -7.8125 9 C-7.01295898 8.19949219 -7.01295898 8.19949219 -6.19726562 7.3828125 C-3.86054729 5.01964075 -1.84878908 2.77318362 0 0 Z " fill="#9EA9F0" transform="translate(244,152)"/>
<path d="M0 0 C6.66792481 2.71656196 11.18029748 9.40239635 15.84765625 14.62890625 C17.50431955 16.45394186 19.1750921 18.21692968 20.9375 19.9375 C23 22 23 22 25 25 C20.91885097 23.38312473 18.19364829 20.45746331 15.1875 17.375 C14.65850098 16.83883057 14.12950195 16.30266113 13.58447266 15.75024414 C8.71585292 10.78109463 3.86752852 5.80129277 0 0 Z " fill="#8D9AEF" transform="translate(278,67)"/>
<path d="M0 0 C0 3 0 3 -1.6796875 5.04296875 C-2.76636719 6.10451172 -2.76636719 6.10451172 -3.875 7.1875 C-4.59429687 7.90292969 -5.31359375 8.61835938 -6.0546875 9.35546875 C-8 11 -8 11 -10 11 C-10.061875 11.598125 -10.12375 12.19625 -10.1875 12.8125 C-11.33494083 15.90176378 -13.16403811 16.33541367 -16 18 C-18.4288448 20.24278423 -20.72256533 22.60442751 -23 25 C-23 22 -23 22 -21.13671875 19.84375 C-20.32847656 19.0703125 -19.52023437 18.296875 -18.6875 17.5 C-17.48673828 16.33984375 -17.48673828 16.33984375 -16.26171875 15.15625 C-15.51535156 14.4446875 -14.76898438 13.733125 -14 13 C-13.49082031 12.484375 -12.98164063 11.96875 -12.45703125 11.4375 C-10.06089188 9.07348046 -7.48402994 6.91802586 -4.9375 4.71875 C-3.22515088 3.19973062 -1.59790099 1.63784851 0 0 Z " fill="#8E9BEF" transform="translate(459,251)"/>
<path d="M0 0 C0 3 0 3 -1.40527344 4.63818359 C-2.05012695 5.21906738 -2.69498047 5.79995117 -3.359375 6.3984375 C-4.06320313 7.04296875 -4.76703125 7.6875 -5.4921875 8.3515625 C-6.23726562 9.01929688 -6.98234375 9.68703125 -7.75 10.375 C-15.31917393 16.89952891 -15.31917393 16.89952891 -21 25 C-21.99 25 -22.98 25 -24 25 C-24 23 -24 23 -21.859375 20.73046875 C-20.91578125 19.82941406 -19.9721875 18.92835938 -19 18 C-18.04474606 17.06075408 -17.09163148 16.11932758 -16.140625 15.17578125 C-15.66496094 14.70462891 -15.18929687 14.23347656 -14.69921875 13.74804688 C-14.22097656 13.27431641 -13.74273437 12.80058594 -13.25 12.3125 C-12.50943359 11.58450195 -12.50943359 11.58450195 -11.75390625 10.84179688 C-9.03384724 8.18159783 -9.03384724 8.18159783 -7 5 C-5.34467377 3.98133771 -3.67739862 2.98189187 -2 2 C-1.34 1.34 -0.68 0.68 0 0 Z " fill="#7F8DEE" transform="translate(251,172)"/>
<path d="M0 0 C4.60585517 3.75988177 8.57123921 7.63696367 12.421875 12.1640625 C14.18445531 14.2145891 16.04971072 16.12772229 18 18 C17.67 18.66 17.34 19.32 17 20 C14.33755928 17.62210176 11.69829501 15.21987437 9.0625 12.8125 C8.30775391 12.13896484 7.55300781 11.46542969 6.77539062 10.77148438 C5.69741211 9.78051758 5.69741211 9.78051758 4.59765625 8.76953125 C3.93258057 8.16729736 3.26750488 7.56506348 2.58227539 6.94458008 C0.71179246 4.64579956 0.35354061 2.90957338 0 0 Z " fill="#8A97EF" transform="translate(346,134)"/>
<path d="M0 0 C0.99 0.33 1.98 0.66 3 1 C0.78340239 3.3041126 -1.4503173 5.5908834 -3.6875 7.875 C-4.62625977 8.85146484 -4.62625977 8.85146484 -5.58398438 9.84765625 C-8.8281834 13.14281128 -11.40544013 15.75252868 -16 17 C-12.61073498 13.01761361 -9.19760731 9.05703388 -5.75 5.125 C-4.75226563 3.98417969 -4.75226563 3.98417969 -3.734375 2.8203125 C-2 1 -2 1 0 0 Z " fill="#D2D7F3" transform="translate(249,78)"/>
<path d="M0 0 C0.99 0.33 1.98 0.66 3 1 C-12.36931141 16.57731713 -12.36931141 16.57731713 -17 20 C-17.99 19.67 -18.98 19.34 -20 19 C-19.5153125 18.5875 -19.030625 18.175 -18.53125 17.75 C-13.45580981 13.37731307 -8.69093233 8.77962643 -4 4 C-2.66783166 2.66550269 -1.33480907 1.33185596 0 0 Z " fill="#3A51EA" transform="translate(255,48)"/>
<path d="M0 0 C-1.61010527 4.07376031 -4.53822271 6.76507069 -7.625 9.75 C-8.140625 10.25660156 -8.65625 10.76320312 -9.1875 11.28515625 C-10.45383339 12.52803902 -11.7263144 13.76465276 -13 15 C-13.99 14.67 -14.98 14.34 -16 14 C-14.04516895 11.85088146 -12.08636605 9.70564025 -10.125 7.5625 C-9.56941406 6.95083984 -9.01382813 6.33917969 -8.44140625 5.70898438 C-7.90644531 5.12568359 -7.37148437 4.54238281 -6.8203125 3.94140625 C-6.32805176 3.40201416 -5.83579102 2.86262207 -5.32861328 2.30688477 C-3.56151294 0.56868408 -2.49418162 0 0 0 Z " fill="#334AEA" transform="translate(98,209)"/>
<path d="M0 0 C6.01959487 2.6753755 9.95443401 6.97697984 14.15234375 11.89453125 C16.95015102 15.08273024 19.96064809 18.04379146 23 21 C17.77400709 21 14.59129831 16.50764078 11 13 C7.10983355 8.85200575 3.50058416 4.48074773 0 0 Z " fill="#7988EE" transform="translate(205,308)"/>
<path d="M0 0 C0 3 0 3 -1.22167969 4.578125 C-1.78274414 5.12984375 -2.34380859 5.6815625 -2.921875 6.25 C-3.53546875 6.8584375 -4.1490625 7.466875 -4.78125 8.09375 C-5.4309375 8.7228125 -6.080625 9.351875 -6.75 10 C-7.70132812 10.94359375 -7.70132812 10.94359375 -8.671875 11.90625 C-11.65489896 14.83955689 -14.61047754 17.53624202 -18 20 C-18.66 19.67 -19.32 19.34 -20 19 C-6.3667426 5.18223235 -6.3667426 5.18223235 0 0 Z " fill="#D0D5F3" transform="translate(314,303)"/>
<path d="M0 0 C3.9444397 1.33188873 6.3059322 2.94652606 9.20703125 5.9140625 C10.33334961 7.05488281 10.33334961 7.05488281 11.48242188 8.21875 C12.25134766 9.0128125 13.02027344 9.806875 13.8125 10.625 C14.60076172 11.42679687 15.38902344 12.22859375 16.20117188 13.0546875 C18.14106673 15.02985317 20.07360084 17.01168427 22 19 C21.67 19.66 21.34 20.32 21 21 C10.5959596 11.72727273 10.5959596 11.72727273 6 7 C5.0925 6.113125 4.185 5.22625 3.25 4.3125 C1 2 1 2 0 0 Z " fill="#7484EE" transform="translate(205,404)"/>
<path d="M0 0 C6.06757967 2.69670208 9.8587874 6.92701456 14 12 C14.886875 12.886875 15.77375 13.77375 16.6875 14.6875 C19 17 19 17 21 20 C17.65215892 18.5450489 15.45622627 16.70194509 12.890625 14.12109375 C12.13652344 13.36505859 11.38242187 12.60902344 10.60546875 11.83007812 C9.82816406 11.04052734 9.05085938 10.25097656 8.25 9.4375 C7.45722656 8.64408203 6.66445313 7.85066406 5.84765625 7.03320312 C0 1.14025522 0 1.14025522 0 0 Z " fill="#8391EE" transform="translate(323,139)"/>
<path d="M0 0 C0 3 0 3 -1.71484375 4.97265625 C-2.44832031 5.66230469 -3.18179687 6.35195313 -3.9375 7.0625 C-6.86434414 9.73700793 -6.86434414 9.73700793 -9 13 C-10.65532623 14.01866229 -12.32260138 15.01810813 -14 16 C-14.66 16.66 -15.32 17.32 -16 18 C-18.125 17.625 -18.125 17.625 -20 17 C-19.278125 16.62875 -18.55625 16.2575 -17.8125 15.875 C-14.81911563 14.0717619 -14.81911563 14.0717619 -12.5 11 C-10.07109492 8.0853139 -8.22750463 6.85581516 -5 5 C-3.2958946 3.37163262 -1.61974559 1.71230248 0 0 Z " fill="#7383ED" transform="translate(276,412)"/>
<path d="M0 0 C4.14339359 0.51553745 6.03807437 2.69969663 8.875 5.625 C10.18210937 6.97078125 10.18210937 6.97078125 11.515625 8.34375 C14.45284158 11.48417025 17.26170658 14.68522375 20 18 C19.67 18.66 19.34 19.32 19 20 C10.19627416 11.36889624 10.19627416 11.36889624 7.25 7.75 C4.96977062 4.96305298 2.57945715 2.50575837 0 0 Z " fill="#7D8CEE" transform="translate(348,164)"/>
<path d="M0 0 C1.94921875 1.609375 1.94921875 1.609375 3.6875 3.75 C4.26886719 4.44609375 4.85023438 5.1421875 5.44921875 5.859375 C6.88849863 7.84608879 7.98203204 9.77350849 9 12 C7.8944811 11.06409496 6.79064547 10.12620142 5.6875 9.1875 C5.07261719 8.66542969 4.45773437 8.14335938 3.82421875 7.60546875 C2 6 2 6 0.45703125 4.30078125 C-1.04745402 2.66701199 -1.04745402 2.66701199 -4 3 C-4.495 3.495 -4.99 3.99 -5.5 4.5 C-5.995 4.995 -6.49 5.49 -7 6 C-7.99 6 -8.98 6 -10 6 C-10 5.34 -10 4.68 -10 4 C-6.67147927 0.76657986 -4.65504741 -0.64060285 0 0 Z " fill="#A2ADF0" transform="translate(259,72)"/>
<path d="M0 0 C0.99 0 1.98 0 3 0 C1.48363279 3.70295197 -0.69453341 5.76245642 -3.6875 8.375 C-4.57566406 9.15488281 -5.46382812 9.93476563 -6.37890625 10.73828125 C-7.24386719 11.48464844 -8.10882813 12.23101562 -9 13 C-9.73089844 13.63292969 -10.46179688 14.26585937 -11.21484375 14.91796875 C-12.80369793 16.28587798 -14.40082163 17.64417486 -16 19 C-14.4106983 15.01263951 -11.60297545 12.40965969 -8.5625 9.5 C-4.70026317 5.80360056 -4.70026317 5.80360056 -1.33984375 1.65625 C-0.67662109 0.83640625 -0.67662109 0.83640625 0 0 Z " fill="#95A1F0" transform="translate(131,170)"/>
<path d="M0 0 C2.475 0.495 2.475 0.495 5 1 C5 1.66 5 2.32 5 3 C5.598125 3.061875 6.19625 3.12375 6.8125 3.1875 C9.89211788 4.33135807 10.42434671 6.17695452 12 9 C13.29579647 10.36984198 14.61992749 11.7151049 16 13 C15.67 13.66 15.34 14.32 15 15 C12.49600402 12.69179519 9.99749023 10.37774095 7.5 8.0625 C6.78457031 7.40314453 6.06914062 6.74378906 5.33203125 6.06445312 C4.65527344 5.43603516 3.97851562 4.80761719 3.28125 4.16015625 C2.65283203 3.57886963 2.02441406 2.99758301 1.37695312 2.39868164 C0 1 0 1 0 0 Z " fill="#A3AEF1" transform="translate(225,303)"/>
<path d="M0 0 C6.12127303 4.25320061 12.54011694 8.973131 17 15 C16.74609375 17.2734375 16.74609375 17.2734375 16 19 C15.5153125 18.35933594 15.030625 17.71867187 14.53125 17.05859375 C10.54183605 11.91071536 6.56003851 7.44803081 1.46875 3.375 C0.9840625 2.92125 0.499375 2.4675 0 2 C0 1.34 0 0.68 0 0 Z " fill="#7585EE" transform="translate(401,193)"/>
<path d="M0 0 C6.73304432 4.62661705 12.33998772 10.13121677 18 16 C17.01 16.33 16.02 16.66 15 17 C14.28457031 16.28199219 13.56914062 15.56398437 12.83203125 14.82421875 C11.00655192 13.00377522 9.17128845 11.19306481 7.32421875 9.39453125 C6.45410156 8.54246094 5.58398438 7.69039062 4.6875 6.8125 C3.80449219 5.95269531 2.92148437 5.09289062 2.01171875 4.20703125 C0 2 0 2 0 0 Z " fill="#909DEF" transform="translate(305,121)"/>
<path d="M0 0 C0.33 0.66 0.66 1.32 1 2 C-1.93240869 6.03206195 -5.28930946 9.08881189 -9.09765625 12.25390625 C-11.02616395 14.02401496 -12.4984381 15.86226235 -14 18 C-14.66 17.67 -15.32 17.34 -16 17 C-10.82296052 11.16555868 -5.59719124 5.43521465 0 0 Z " fill="#C0C7F2" transform="translate(281,432)"/>
<path d="M0 0 C0.99 0 1.98 0 3 0 C3 0.66 3 1.32 3 2 C2.34 2 1.68 2 1 2 C0.67 2.99 0.34 3.98 0 5 C-1.63671875 6.6484375 -1.63671875 6.6484375 -3.6875 8.375 C-4.76064453 9.28572266 -4.76064453 9.28572266 -5.85546875 10.21484375 C-6.91701172 11.09849609 -6.91701172 11.09849609 -8 12 C-8.92232422 12.77537109 -8.92232422 12.77537109 -9.86328125 13.56640625 C-11.23698821 14.7171727 -12.61768397 15.85958928 -14 17 C-12.4744094 13.34858644 -10.27519091 11.09881888 -7.4375 8.375 C-4.30957946 5.48929319 -4.30957946 5.48929319 -2 2 C-1.34 2 -0.68 2 0 2 C0 1.34 0 0.68 0 0 Z " fill="#97A3F0" transform="translate(298,386)"/>
<path d="M0 0 C0.33 0.66 0.66 1.32 1 2 C-3.33333333 6.33333333 -7.66666667 10.66666667 -12 15 C-12.99 14.67 -13.98 14.34 -15 14 C-14.43410156 13.51789063 -13.86820312 13.03578125 -13.28515625 12.5390625 C-12.18494141 11.59160156 -12.18494141 11.59160156 -11.0625 10.625 C-10.33160156 9.99851562 -9.60070312 9.37203125 -8.84765625 8.7265625 C-6.91619094 7.12252286 -6.91619094 7.12252286 -6 5 C-5.34 5 -4.68 5 -4 5 C-4 4.34 -4 3.68 -4 3 C-3.01 3 -2.02 3 -1 3 C-0.67 2.01 -0.34 1.02 0 0 Z " fill="#3048E9" transform="translate(305,383)"/>
<path d="M0 0 C0.66 0.33 1.32 0.66 2 1 C1.43410156 1.55429688 0.86820313 2.10859375 0.28515625 2.6796875 C-0.44832031 3.40414062 -1.18179688 4.12859375 -1.9375 4.875 C-2.66839844 5.59429687 -3.39929688 6.31359375 -4.15234375 7.0546875 C-6.05667999 8.87027192 -6.05667999 8.87027192 -7 11 C-9.93704456 13.0095568 -11.39222485 14 -15 14 C-11.33580406 9.55439052 -8.16427212 5.72558807 -3 3 C-1.24850835 1.41754725 -1.24850835 1.41754725 0 0 Z " fill="#919DEF" transform="translate(225,198)"/>
<path d="M0 0 C0 3 0 3 -2.40625 5.69921875 C-3.4299968 6.70302243 -4.4616054 7.69885649 -5.5 8.6875 C-6.02464844 9.19861328 -6.54929687 9.70972656 -7.08984375 10.23632812 C-8.38660904 11.49772708 -9.69246117 12.74977212 -11 14 C-11.33 13.01 -11.66 12.02 -12 11 C-10.37807179 9.35113941 -8.75236228 7.7059976 -7.125 6.0625 C-6.22007812 5.14597656 -5.31515625 4.22945313 -4.3828125 3.28515625 C-2 1 -2 1 0 0 Z " fill="#D2D7F3" transform="translate(330,383)"/>
<path d="M0 0 C0 3 0 3 -1.57421875 4.8671875 C-2.27160156 5.52976562 -2.96898437 6.19234375 -3.6875 6.875 C-4.41324219 7.57367188 -5.13898438 8.27234375 -5.88671875 8.9921875 C-6.58410156 9.65476562 -7.28148437 10.31734375 -8 11 C-9.00356927 11.99641794 -10.00431338 12.99570514 -11 14 C-11.66 14.66 -12.32 15.32 -13 16 C-13.99 15.67 -14.98 15.34 -16 15 C-12.63722386 10.78208491 -9.74110126 7.67446738 -5 5 C-3.2958946 3.37163262 -1.61974559 1.71230248 0 0 Z " fill="#7081ED" transform="translate(317,370)"/>
<path d="M0 0 C0.99 0.33 1.98 0.66 3 1 C-1.08424305 6.61583419 -6.23921161 11.15947441 -12 15 C-10.56438314 11.81293058 -8.79733671 9.37830895 -6.5 6.75 C-5.8915625 6.04359375 -5.283125 5.3371875 -4.65625 4.609375 C-3 3 -3 3 -1 3 C-0.67 2.01 -0.34 1.02 0 0 Z " fill="#6F7FED" transform="translate(198,127)"/>
<path d="M0 0 C5.59363406 4.06133537 10.85963514 8.3791401 16 13 C15.67 13.66 15.34 14.32 15 15 C12.0625 13.6875 12.0625 13.6875 9 12 C8.67 11.01 8.34 10.02 8 9 C6.1355719 7.18653734 6.1355719 7.18653734 3.9375 5.4375 C2.58840481 4.33498812 1.26611103 3.19689312 0 2 C0 1.34 0 0.68 0 0 Z " fill="#6072EC" transform="translate(330,121)"/>
<path d="M0 0 C3.09728249 1.34548616 4.85423023 2.73195968 6.9375 5.375 C9.3712145 8.34128306 11.8940332 10.71620088 15 13 C14.67 13.99 14.34 14.98 14 16 C12.22273722 14.27705085 10.45330337 12.54712904 8.6875 10.8125 C8.18798828 10.32974609 7.68847656 9.84699219 7.17382812 9.34960938 C4.23648806 6.45117447 1.94921782 3.63898344 0 0 Z " fill="#6D7EED" transform="translate(216,390)"/>
<path d="M0 0 C1.1055189 0.93590504 2.20935453 1.87379858 3.3125 2.8125 C3.92738281 3.33457031 4.54226562 3.85664063 5.17578125 4.39453125 C7 6 7 6 8.5625 7.60546875 C10.07670905 9.1944929 10.07670905 9.1944929 12.6875 10.5 C13.450625 10.995 14.21375 11.49 15 12 C15 12.99 15 13.98 15 15 C14.62875 14.54625 14.2575 14.0925 13.875 13.625 C11.9806071 11.76788497 11.9806071 11.76788497 8.875 11 C7.92625 10.67 6.9775 10.34 6 10 C5.67 9.01 5.34 8.02 5 7 C4.154375 6.154375 3.30875 5.30875 2.4375 4.4375 C1.633125 3.633125 0.82875 2.82875 0 2 C0 1.34 0 0.68 0 0 Z " fill="#8B98EF" transform="translate(170,343)"/>
<path d="M0 0 C1.34313399 0.64669414 2.67391178 1.31903578 4 2 C4.845625 2.433125 5.69125 2.86625 6.5625 3.3125 C9.35511517 5.24584897 10.58349407 6.93090382 12 10 C11.67 10.66 11.34 11.32 11 12 C10.18595703 11.15115234 10.18595703 11.15115234 9.35546875 10.28515625 C8.64003906 9.55167969 7.92460937 8.81820313 7.1875 8.0625 C6.47980469 7.33160156 5.77210938 6.60070312 5.04296875 5.84765625 C3.04463837 3.79165354 3.04463837 3.79165354 0 3 C0 2.01 0 1.02 0 0 Z " fill="#8E9BEF" transform="translate(130,328)"/>
<path d="M0 0 C6.16075539 3.38841546 9.82011164 8.44096066 14 14 C13.01 14.33 12.02 14.66 11 15 C10.54109375 14.39671875 10.0821875 13.7934375 9.609375 13.171875 C8.68898437 11.97304688 8.68898437 11.97304688 7.75 10.75 C7.14671875 9.96109375 6.5434375 9.1721875 5.921875 8.359375 C4.03568944 5.95085226 4.03568944 5.95085226 1.765625 3.828125 C0 2 0 2 0 0 Z " fill="#818FEE" transform="translate(167,365)"/>
<path d="M0 0 C0 3 0 3 -2.08203125 5.48046875 C-2.98308594 6.37378906 -3.88414062 7.26710938 -4.8125 8.1875 C-5.70582031 9.08855469 -6.59914063 9.98960937 -7.51953125 10.91796875 C-10 13 -10 13 -13 13 C-13 12.34 -13 11.68 -13 11 C-12.34 11 -11.68 11 -11 11 C-10.67 10.01 -10.34 9.02 -10 8 C-8.34151823 6.98648336 -6.67334039 5.98879205 -5 5 C-3.2958946 3.37163262 -1.61974559 1.71230248 0 0 Z " fill="#6A7AED" transform="translate(284,308)"/>
<path d="M0 0 C4.41459584 0.40226457 6.53697056 3.40387125 9.25 6.5625 C9.70890625 7.08263672 10.1678125 7.60277344 10.640625 8.13867188 C11.7682143 9.41895555 12.88517315 10.70858798 14 12 C13.01 12.33 12.02 12.66 11 13 C7.74483572 9.83525695 4.67991207 6.67247209 2 3 C2 2.34 2 1.68 2 1 C1.34 0.67 0.68 0.34 0 0 Z " fill="#909CEF" transform="translate(211,289)"/>
<path d="M0 0 C5.50719921 3.90510489 10.35827355 8.09717644 15 13 C14.01 13.33 13.02 13.66 12 14 C12 13.34 12 12.68 12 12 C11.01 11.67 10.02 11.34 9 11 C7.29006566 9.3777546 5.62652316 7.70586575 4 6 C3.236875 5.278125 2.47375 4.55625 1.6875 3.8125 C0 2 0 2 0 0 Z " fill="#98A4F0" transform="translate(286,198)"/>
<path d="M0 0 C0 3 0 3 -2.40625 5.69921875 C-3.4299968 6.70302243 -4.4616054 7.69885649 -5.5 8.6875 C-6.02464844 9.19861328 -6.54929687 9.70972656 -7.08984375 10.23632812 C-8.38660904 11.49772708 -9.69246117 12.74977212 -11 14 C-11.33 13.01 -11.66 12.02 -12 11 C-10.625 9.5 -10.625 9.5 -9 8 C-8.34 8 -7.68 8 -7 8 C-7 7.34 -7 6.68 -7 6 C-5.46875 4.4921875 -5.46875 4.4921875 -3.5 2.875 C-2.8503125 2.33617187 -2.200625 1.79734375 -1.53125 1.2421875 C-0.77328125 0.62730469 -0.77328125 0.62730469 0 0 Z " fill="#3D54EA" transform="translate(81,224)"/>
<path d="M0 0 C0.99 0.33 1.98 0.66 3 1 C0.69 3.31 -1.62 5.62 -4 8 C-4 4.09161134 -2.49432124 2.88405893 0 0 Z M-8 8 C-7.01 8.33 -6.02 8.66 -5 9 C-6.65 10.32 -8.3 11.64 -10 13 C-10.66 12.67 -11.32 12.34 -12 12 C-10.68 10.68 -9.36 9.36 -8 8 Z " fill="#DEE1F4" transform="translate(179,149)"/>
<path d="M0 0 C5.27790693 3.0895065 9.49468345 6.94944036 13 12 C13 12.99 13 13.98 13 15 C10.82722286 12.88094537 8.66173092 10.75527122 6.5 8.625 C5.87996094 8.02171875 5.25992188 7.4184375 4.62109375 6.796875 C4.03457031 6.21679688 3.44804687 5.63671875 2.84375 5.0390625 C2.29912109 4.50490723 1.75449219 3.97075195 1.19335938 3.42041016 C0 2 0 2 0 0 Z " fill="#909DEF" transform="translate(151,323)"/>
<path d="M0 0 C5.27790693 3.0895065 9.49468345 6.94944036 13 12 C13 12.99 13 13.98 13 15 C10.82722286 12.88094537 8.66173092 10.75527122 6.5 8.625 C5.87996094 8.02171875 5.25992187 7.4184375 4.62109375 6.796875 C4.03457031 6.21679688 3.44804687 5.63671875 2.84375 5.0390625 C2.29912109 4.50490723 1.75449219 3.97075195 1.19335938 3.42041016 C0 2 0 2 0 0 Z " fill="#97A2F0" transform="translate(364,154)"/>
<path d="M0 0 C4.31730413 0.47409648 6.33647461 3.03396703 9.25 6.0625 C10.14203125 6.98160156 11.0340625 7.90070313 11.953125 8.84765625 C12.62859375 9.55792969 13.3040625 10.26820313 14 11 C13.67 11.66 13.34 12.32 13 13 C8.66666667 8.66666667 4.33333333 4.33333333 0 0 Z " fill="#7484EE" transform="translate(181,380)"/>
<path d="M0 0 C4.33333333 4.33333333 8.66666667 8.66666667 13 13 C12.67 13.66 12.34 14.32 12 15 C2.87822878 7.31734317 2.87822878 7.31734317 0 3 C0 2.01 0 1.02 0 0 Z " fill="#8C99EF" transform="translate(138,308)"/>
<path d="M0 0 C3.40490058 0.25221486 4.16501243 1.18563899 6.5 3.8125 C6.91636719 4.34746094 7.33273438 4.88242187 7.76171875 5.43359375 C9.35578563 7.45006321 11.15044998 9.21895183 13 11 C10 11 10 11 7.51953125 8.84765625 C6.62621094 7.92855469 5.73289063 7.00945312 4.8125 6.0625 C3.91144531 5.14597656 3.01039063 4.22945313 2.08203125 3.28515625 C0 1 0 1 0 0 Z " fill="#8B98EF" transform="translate(243,417)"/>
<path d="M0 0 C0.33 0.66 0.66 1.32 1 2 C-2.49359465 5.59634744 -6.11098131 8.83451967 -10 12 C-9.82701599 9.66471585 -9.29774631 8.30822418 -7.66796875 6.62109375 C-3.42788462 3 -3.42788462 3 -1 3 C-0.67 2.01 -0.34 1.02 0 0 Z " fill="#2A42E9" transform="translate(374,313)"/>
<path d="M0 0 C3.8203125 1.8046875 3.8203125 1.8046875 5.4375 3.5625 C7.49199044 5.45263121 9.27994277 5.6324247 12 6 C12 6.66 12 7.32 12 8 C9.375 8.5 9.375 8.5 6 8 C3.6317567 5.56775013 1.80488213 2.86733048 0 0 Z " fill="#9DA8F0" transform="translate(248,352)"/>
<path d="M0 0 C6.52307692 0.61538462 6.52307692 0.61538462 8.9375 2.5625 C9.288125 3.036875 9.63875 3.51125 10 4 C9.67 4.99 9.34 5.98 9 7 C8.236875 6.195625 7.47375 5.39125 6.6875 4.5625 C4.20569102 1.83200976 4.20569102 1.83200976 1 1 C0.34 2.32 -0.32 3.64 -1 5 C-1 2 -1 2 0 0 Z " fill="#7685EE" transform="translate(254,47)"/>
<path d="M0 0 C0.66 0.33 1.32 0.66 2 1 C1.3503125 1.5878125 1.3503125 1.5878125 0.6875 2.1875 C-1.13512023 3.99104472 -1.13512023 3.99104472 -2.375 6.5625 C-4.29492093 9.44238139 -5.73894457 10.03049703 -9 11 C-8.06558465 9.72689688 -7.12732889 8.456612 -6.1875 7.1875 C-5.66542969 6.47980469 -5.14335937 5.77210938 -4.60546875 5.04296875 C-3.16871123 3.21468607 -1.68184237 1.60103312 0 0 Z " fill="#BDC4F2" transform="translate(395,315)"/>
<path d="M0 0 C0.33 0.66 0.66 1.32 1 2 C-1.3833861 5.14947449 -3.55084975 7.9972676 -7 10 C-7.99 9.67 -8.98 9.34 -10 9 C-9.44570312 8.51789063 -8.89140625 8.03578125 -8.3203125 7.5390625 C-7.59585938 6.90742188 -6.87140625 6.27578125 -6.125 5.625 C-5.40570313 4.99851563 -4.68640625 4.37203125 -3.9453125 3.7265625 C-2.5923402 2.52573166 -1.2791655 1.2791655 0 0 Z " fill="#C5CBF3" transform="translate(155,174)"/>
<path d="M0 0 C0 3 0 3 -1.53125 4.82421875 C-2.1809375 5.43910156 -2.830625 6.05398437 -3.5 6.6875 C-4.1496875 7.31011719 -4.799375 7.93273437 -5.46875 8.57421875 C-5.9740625 9.04472656 -6.479375 9.51523438 -7 10 C-7.99 9.67 -8.98 9.34 -10 9 C-9.278125 8.443125 -8.55625 7.88625 -7.8125 7.3125 C-5.02542701 5.02090666 -2.51358472 2.58540143 0 0 Z " fill="#D5DAF4" transform="translate(204,125)"/>
<path d="M0 0 C4.27124556 0.47458284 6.20508608 2.91842825 9 6 C10.02813611 7.31175986 11.04084432 8.6369893 12 10 C8.78727751 8.56006357 6.3793336 6.76981628 3.75 4.4375 C3.04359375 3.81746094 2.3371875 3.19742188 1.609375 2.55859375 C1.07828125 2.04425781 0.5471875 1.52992188 0 1 C0 0.67 0 0.34 0 0 Z " fill="#919EEF" transform="translate(389,181)"/>
<path d="M0 0 C0 3 0 3 -1.53125 4.60546875 C-2.1809375 5.12753906 -2.830625 5.64960938 -3.5 6.1875 C-4.1496875 6.71730469 -4.799375 7.24710937 -5.46875 7.79296875 C-5.9740625 8.19128906 -6.479375 8.58960938 -7 9 C-6.62890625 7.078125 -6.62890625 7.078125 -6 5 C-3.9375 3.75 -3.9375 3.75 -2 3 C-2 2.34 -2 1.68 -2 1 C-1.34 0.67 -0.68 0.34 0 0 Z " fill="#3149E9" transform="translate(396,291)"/>
<path d="M0 0 C3.59905908 0.55550695 4.99909799 1.74887248 7.25 4.5625 C8.03117188 5.52349609 8.03117188 5.52349609 8.828125 6.50390625 C9.21484375 6.99761719 9.6015625 7.49132812 10 8 C9.67 8.66 9.34 9.32 9 10 C7.49702124 8.52386015 5.99768715 7.04400843 4.5 5.5625 C3.6646875 4.73878906 2.829375 3.91507812 1.96875 3.06640625 C0 1 0 1 0 0 Z " fill="#8D9AEF" transform="translate(142,340)"/>
<path d="M0 0 C0.33 0.66 0.66 1.32 1 2 C-1.47812494 5.45167403 -2.79606135 7.23163306 -7 8 C-6.02133662 6.85373678 -5.04205413 5.70800212 -4.0625 4.5625 C-3.51722656 3.92441406 -2.97195312 3.28632812 -2.41015625 2.62890625 C-1.63204305 1.73008851 -0.84063472 0.84063472 0 0 Z " fill="#3E54EA" transform="translate(196,107)"/>
<path d="M0 0 C0.33 0.66 0.66 1.32 1 2 C-1.47812494 5.45167403 -2.79606135 7.23163306 -7 8 C-6.02133662 6.85373678 -5.04205413 5.70800212 -4.0625 4.5625 C-3.51722656 3.92441406 -2.97195312 3.28632812 -2.41015625 2.62890625 C-1.63204305 1.73008851 -0.84063472 0.84063472 0 0 Z " fill="#3C52EA" transform="translate(207,97)"/>
<path d="M0 0 C2.37948772 0.17625835 3.70225849 0.69719773 5.37890625 2.40234375 C6.62115486 3.90649092 7.81376056 5.45129851 9 7 C5.18315774 5.44499019 2.80804268 2.96404505 0 0 Z " fill="#8B98EF" transform="translate(298,186)"/>
<path d="M0 0 C3.36591866 1.44253657 5.51047079 3.33264727 8 6 C7.67 6.99 7.34 7.98 7 9 C4.03595495 6.19195732 1.55500981 3.81684226 0 0 Z " fill="#7182ED" transform="translate(368,184)"/>
<path d="M0 0 C2.475 0.495 2.475 0.495 5 1 C5.66 2.98 6.32 4.96 7 7 C5.83040013 6.02433888 4.66438823 5.044375 3.5 4.0625 C2.8503125 3.51722656 2.200625 2.97195313 1.53125 2.41015625 C1.0259375 1.94480469 0.520625 1.47945313 0 1 C0 0.67 0 0.34 0 0 Z " fill="#7585EE" transform="translate(225,303)"/>
</svg>
